<?xml version="1.0" encoding="UTF-8"?>
<svg xmlns="http://www.w3.org/2000/svg" viewBox="27.78 15 944.25 558" width="944.25" height="558">
<style>.edge-gap{fill:none;stroke:#fff;stroke-width:6;stroke-linejoin:round}.edge{fill:none;stroke:#20252b;stroke-width:1.6;stroke-linejoin:round;stroke-linecap:square}.node-annotation text{font-family:Arial,Noto Sans CJK SC,sans-serif;font-size:11px}</style>
<rect x="27.78" y="15" width="944.25" height="558" fill="#ffffff"/>
<polyline class="edge" points="807.042,496.0025 885.03,496.0025"/>
<polyline class="edge" points="515.61,384.0025 594.76,384.0025"/>
<polyline class="edge" points="214.34,90.0042 591.76,90.0042"/>
<polyline class="edge" points="417.46,146.0073 591.76,146.0073"/>
<polyline class="edge" points="315.9,202.0104 591.76,202.0104"/>
<polyline class="edge" points="112.78,257.9898 591.76,257.9898"/>
<polyline class="edge" points="613.76,496.0025 692.91,496.0025"/>
<polyline class="edge" points="214.34,440.0025 496.61,440.0025"/>
<polyline class="edge" points="417.46,496.0025 495.218,496.0025"/>
<polyline class="edge" points="712.302,384.0025 784.65,384.0025"/>
<polyline class="edge" points="516.002,328.0025 591.76,328.0025"/>
<polyline class="edge" points="615.76,173.997 692.91,173.997"/>
<polyline class="edge" points="112.78,257.9898 143.56,257.9898 143.56,328.0025 495.218,328.0025"/>
<polyline class="edge" points="816.65,440.0025 885.03,440.0025"/>
<polyline class="edge" points="721.91,173.997 786.258,173.997"/>
<polyline class="edge" points="721.91,328.0025 786.258,328.0025"/>
<polyline class="edge" points="711.91,440.0025 787.65,440.0025"/>
<polyline class="edge" points="516.002,496.0025 591.76,496.0025"/>
<polyline class="edge" points="315.9,384.0025 493.61,384.0025"/>
<polyline class="edge" points="807.042,173.997 885.03,173.997"/>
<polyline class="edge" points="525.61,440.0025 593.368,440.0025"/>
<polyline class="edge" points="623.76,384.0025 691.518,384.0025"/>
<polyline class="edge" points="613.76,328.0025 692.91,328.0025"/>
<polyline class="edge" points="614.152,440.0025 689.91,440.0025"/>
<polyline class="edge" points="807.042,328.0025 885.03,328.0025"/>
<polyline class="edge" points="806.65,384.0025 885.03,384.0025"/>
<polyline class="edge" points="721.91,496.0025 786.258,496.0025"/>
<circle cx="143.56" cy="257.9898" r="3" fill="#000000"/>
<g class="component" data-node-id="aux_0_0"><svg class="component-graphic" x="485.61" y="298" width="40" height="54" viewBox="0 0 40 54" preserveAspectRatio="none" style="display:block;overflow:visible;" overflow="visible"><polygon points="30.4,36.0 20.0,42.0 9.6,36.0 9.6,24.0 20.0,18.0 30.4,24.0" fill="none" stroke="#000000" stroke-width="2" stroke-linejoin="round" /><path d="M 14.5 30.0 L 25.5 30.0" fill="none" stroke="#000000" stroke-width="1.5" stroke-linecap="round" /><circle cx="20.0" cy="25.5" r="1.4" fill="#000000" /><circle cx="20.0" cy="34.5" r="1.4" fill="#000000" /></svg><text x="507.61" y="358.02" font-size="11" font-family="Helvetica,Arial,sans-serif" fill="#000000" text-anchor="middle">aux_0_0</text></g>
<g class="component" data-node-id="aux_0_1"><svg class="component-graphic" x="583.76" y="298" width="40" height="54" viewBox="0 0 40 54" preserveAspectRatio="none" style="display:block;overflow:visible;" overflow="visible"><polygon points="8,15 30,30 8,45" fill="none" stroke="#000000" stroke-width="2" stroke-linejoin="round" /></svg><text x="605.76" y="358.02" font-size="11" font-family="Helvetica,Arial,sans-serif" fill="#000000" text-anchor="middle">aux_0_1</text></g>
<g class="component" data-node-id="aux_0_2"><svg class="component-graphic" x="681.91" y="298" width="40" height="54" viewBox="0 0 40 54" preserveAspectRatio="none" style="display:block;overflow:visible;" overflow="visible"><path d="M 11 18 L 19 18 A 12 12 0 1 1 19 42 L 11 42 Z" fill="none" stroke="#000000" stroke-width="2" stroke-linejoin="miter" /><path d="M 31 30 L 34 30" fill="none" stroke="#000000" stroke-width="2" /><circle cx="37" cy="30" r="3" fill="#ffffff" stroke="#000000" stroke-width="2" /></svg><text x="703.91" y="358.02" font-size="11" font-family="Helvetica,Arial,sans-serif" fill="#000000" text-anchor="middle">aux_0_2</text></g>
<g class="component" data-node-id="aux_0_3"><svg class="component-graphic" x="776.65" y="298" width="40" height="54" viewBox="0 0 40 54" preserveAspectRatio="none" style="display:block;overflow:visible;" overflow="visible"><polygon points="30.4,36.0 20.0,42.0 9.6,36.0 9.6,24.0 20.0,18.0 30.4,24.0" fill="none" stroke="#000000" stroke-width="2" stroke-linejoin="round" /><path d="M 14.5 30.0 L 25.5 30.0" fill="none" stroke="#000000" stroke-width="1.5" stroke-linecap="round" /><circle cx="20.0" cy="25.5" r="1.4" fill="#000000" /><circle cx="20.0" cy="34.5" r="1.4" fill="#000000" /></svg><text x="798.65" y="358.02" font-size="11" font-family="Helvetica,Arial,sans-serif" fill="#000000" text-anchor="middle">aux_0_3</text></g>
<g class="component" data-node-id="aux_1_0"><svg class="component-graphic" x="485.61" y="354" width="40" height="54" viewBox="0 0 40 54" preserveAspectRatio="none" style="display:block;overflow:visible;" overflow="visible"><polygon points="8,15 30,30 8,45" fill="none" stroke="#000000" stroke-width="2" stroke-linejoin="round" /></svg><text x="507.61" y="414.02" font-size="11" font-family="Helvetica,Arial,sans-serif" fill="#000000" text-anchor="middle">aux_1_0</text></g>
<g class="component" data-node-id="aux_1_1"><svg class="component-graphic" x="583.76" y="354" width="40" height="54" viewBox="0 0 40 54" preserveAspectRatio="none" style="display:block;overflow:visible;" overflow="visible"><path d="M 11 18 L 19 18 A 12 12 0 1 1 19 42 L 11 42 Z" fill="none" stroke="#000000" stroke-width="2" stroke-linejoin="miter" /><path d="M 31 30 L 34 30" fill="none" stroke="#000000" stroke-width="2" /><circle cx="37" cy="30" r="3" fill="#ffffff" stroke="#000000" stroke-width="2" /></svg><text x="605.76" y="414.02" font-size="11" font-family="Helvetica,Arial,sans-serif" fill="#000000" text-anchor="middle">aux_1_1</text></g>
<g class="component" data-node-id="aux_1_2"><svg class="component-graphic" x="681.91" y="354" width="40" height="54" viewBox="0 0 40 54" preserveAspectRatio="none" style="display:block;overflow:visible;" overflow="visible"><polygon points="30.4,36.0 20.0,42.0 9.6,36.0 9.6,24.0 20.0,18.0 30.4,24.0" fill="none" stroke="#000000" stroke-width="2" stroke-linejoin="round" /><path d="M 14.5 30.0 L 25.5 30.0" fill="none" stroke="#000000" stroke-width="1.5" stroke-linecap="round" /><circle cx="20.0" cy="25.5" r="1.4" fill="#000000" /><circle cx="20.0" cy="34.5" r="1.4" fill="#000000" /></svg><text x="703.91" y="414.02" font-size="11" font-family="Helvetica,Arial,sans-serif" fill="#000000" text-anchor="middle">aux_1_2</text></g>
<g class="component" data-node-id="aux_1_3"><svg class="component-graphic" x="776.65" y="354" width="40" height="54" viewBox="0 0 40 54" preserveAspectRatio="none" style="display:block;overflow:visible;" overflow="visible"><polygon points="8,15 30,30 8,45" fill="none" stroke="#000000" stroke-width="2" stroke-linejoin="round" /></svg><text x="798.65" y="414.02" font-size="11" font-family="Helvetica,Arial,sans-serif" fill="#000000" text-anchor="middle">aux_1_3</text></g>
<g class="component" data-node-id="aux_2_0"><svg class="component-graphic" x="485.61" y="410" width="40" height="54" viewBox="0 0 40 54" preserveAspectRatio="none" style="display:block;overflow:visible;" overflow="visible"><path d="M 11 18 L 19 18 A 12 12 0 1 1 19 42 L 11 42 Z" fill="none" stroke="#000000" stroke-width="2" stroke-linejoin="miter" /><path d="M 31 30 L 34 30" fill="none" stroke="#000000" stroke-width="2" /><circle cx="37" cy="30" r="3" fill="#ffffff" stroke="#000000" stroke-width="2" /></svg><text x="507.61" y="470.02" font-size="11" font-family="Helvetica,Arial,sans-serif" fill="#000000" text-anchor="middle">aux_2_0</text></g>
<g class="component" data-node-id="aux_2_1"><svg class="component-graphic" x="583.76" y="410" width="40" height="54" viewBox="0 0 40 54" preserveAspectRatio="none" style="display:block;overflow:visible;" overflow="visible"><polygon points="30.4,36.0 20.0,42.0 9.6,36.0 9.6,24.0 20.0,18.0 30.4,24.0" fill="none" stroke="#000000" stroke-width="2" stroke-linejoin="round" /><path d="M 14.5 30.0 L 25.5 30.0" fill="none" stroke="#000000" stroke-width="1.5" stroke-linecap="round" /><circle cx="20.0" cy="25.5" r="1.4" fill="#000000" /><circle cx="20.0" cy="34.5" r="1.4" fill="#000000" /></svg><text x="605.76" y="470.02" font-size="11" font-family="Helvetica,Arial,sans-serif" fill="#000000" text-anchor="middle">aux_2_1</text></g>
<g class="component" data-node-id="aux_2_2"><svg class="component-graphic" x="681.91" y="410" width="40" height="54" viewBox="0 0 40 54" preserveAspectRatio="none" style="display:block;overflow:visible;" overflow="visible"><polygon points="8,15 30,30 8,45" fill="none" stroke="#000000" stroke-width="2" stroke-linejoin="round" /></svg><text x="703.91" y="470.02" font-size="11" font-family="Helvetica,Arial,sans-serif" fill="#000000" text-anchor="middle">aux_2_2</text></g>
<g class="component" data-node-id="aux_2_3"><svg class="component-graphic" x="776.65" y="410" width="40" height="54" viewBox="0 0 40 54" preserveAspectRatio="none" style="display:block;overflow:visible;" overflow="visible"><path d="M 11 18 L 19 18 A 12 12 0 1 1 19 42 L 11 42 Z" fill="none" stroke="#000000" stroke-width="2" stroke-linejoin="miter" /><path d="M 31 30 L 34 30" fill="none" stroke="#000000" stroke-width="2" /><circle cx="37" cy="30" r="3" fill="#ffffff" stroke="#000000" stroke-width="2" /></svg><text x="798.65" y="470.02" font-size="11" font-family="Helvetica,Arial,sans-serif" fill="#000000" text-anchor="middle">aux_2_3</text></g>
<g class="component" data-node-id="aux_3_0"><svg class="component-graphic" x="485.61" y="466" width="40" height="54" viewBox="0 0 40 54" preserveAspectRatio="none" style="display:block;overflow:visible;" overflow="visible"><polygon points="30.4,36.0 20.0,42.0 9.6,36.0 9.6,24.0 20.0,18.0 30.4,24.0" fill="none" stroke="#000000" stroke-width="2" stroke-linejoin="round" /><path d="M 14.5 30.0 L 25.5 30.0" fill="none" stroke="#000000" stroke-width="1.5" stroke-linecap="round" /><circle cx="20.0" cy="25.5" r="1.4" fill="#000000" /><circle cx="20.0" cy="34.5" r="1.4" fill="#000000" /></svg><text x="507.61" y="526.02" font-size="11" font-family="Helvetica,Arial,sans-serif" fill="#000000" text-anchor="middle">aux_3_0</text></g>
<g class="component" data-node-id="aux_3_1"><svg class="component-graphic" x="583.76" y="466" width="40" height="54" viewBox="0 0 40 54" preserveAspectRatio="none" style="display:block;overflow:visible;" overflow="visible"><polygon points="8,15 30,30 8,45" fill="none" stroke="#000000" stroke-width="2" stroke-linejoin="round" /></svg><text x="605.76" y="526.02" font-size="11" font-family="Helvetica,Arial,sans-serif" fill="#000000" text-anchor="middle">aux_3_1</text></g>
<g class="component" data-node-id="aux_3_2"><svg class="component-graphic" x="681.91" y="466" width="40" height="54" viewBox="0 0 40 54" preserveAspectRatio="none" style="display:block;overflow:visible;" overflow="visible"><path d="M 11 18 L 19 18 A 12 12 0 1 1 19 42 L 11 42 Z" fill="none" stroke="#000000" stroke-width="2" stroke-linejoin="miter" /><path d="M 31 30 L 34 30" fill="none" stroke="#000000" stroke-width="2" /><circle cx="37" cy="30" r="3" fill="#ffffff" stroke="#000000" stroke-width="2" /></svg><text x="703.91" y="526.02" font-size="11" font-family="Helvetica,Arial,sans-serif" fill="#000000" text-anchor="middle">aux_3_2</text></g>
<g class="component" data-node-id="aux_3_3"><svg class="component-graphic" x="776.65" y="466" width="40" height="54" viewBox="0 0 40 54" preserveAspectRatio="none" style="display:block;overflow:visible;" overflow="visible"><polygon points="30.4,36.0 20.0,42.0 9.6,36.0 9.6,24.0 20.0,18.0 30.4,24.0" fill="none" stroke="#000000" stroke-width="2" stroke-linejoin="round" /><path d="M 14.5 30.0 L 25.5 30.0" fill="none" stroke="#000000" stroke-width="1.5" stroke-linecap="round" /><circle cx="20.0" cy="25.5" r="1.4" fill="#000000" /><circle cx="20.0" cy="34.5" r="1.4" fill="#000000" /></svg><text x="798.65" y="526.02" font-size="11" font-family="Helvetica,Arial,sans-serif" fill="#000000" text-anchor="middle">aux_3_3</text></g>
<g class="component" data-node-id="aux_clock_0"><svg class="component-graphic" x="885.03" y="292.0016" width="40" height="36" viewBox="0 0 40 36" preserveAspectRatio="none" style="display:block;overflow:visible;" overflow="visible"><path d="M 0 36 L 7 36 M 43 36 L 43 24 L 39 24 L 39 36 L 34 36 L 34 24 L 30 24 L 30 36 L 25 36 L 25 24 L 21 24 L 21 36 L 16 36 L 16 24 L 12 24 L 12 36 L 7 36" fill="none" stroke="#000000" stroke-width="1.5" stroke-linecap="square" stroke-linejoin="miter" /></svg><text x="912.03" y="348.0216" font-size="11" font-family="Helvetica,Arial,sans-serif" fill="#000000" text-anchor="middle">aux_clock_0</text></g>
<g class="component" data-node-id="aux_clock_1"><svg class="component-graphic" x="885.03" y="348.0016" width="40" height="36" viewBox="0 0 40 36" preserveAspectRatio="none" style="display:block;overflow:visible;" overflow="visible"><path d="M 0 36 L 7 36 M 43 36 L 43 24 L 39 24 L 39 36 L 34 36 L 34 24 L 30 24 L 30 36 L 25 36 L 25 24 L 21 24 L 21 36 L 16 36 L 16 24 L 12 24 L 12 36 L 7 36" fill="none" stroke="#000000" stroke-width="1.5" stroke-linecap="square" stroke-linejoin="miter" /></svg><text x="912.03" y="404.0216" font-size="11" font-family="Helvetica,Arial,sans-serif" fill="#000000" text-anchor="middle">aux_clock_1</text></g>
<g class="component" data-node-id="aux_clock_2"><svg class="component-graphic" x="885.03" y="404.0016" width="40" height="36" viewBox="0 0 40 36" preserveAspectRatio="none" style="display:block;overflow:visible;" overflow="visible"><path d="M 0 36 L 7 36 M 43 36 L 43 24 L 39 24 L 39 36 L 34 36 L 34 24 L 30 24 L 30 36 L 25 36 L 25 24 L 21 24 L 21 36 L 16 36 L 16 24 L 12 24 L 12 36 L 7 36" fill="none" stroke="#000000" stroke-width="1.5" stroke-linecap="square" stroke-linejoin="miter" /></svg><text x="912.03" y="460.0216" font-size="11" font-family="Helvetica,Arial,sans-serif" fill="#000000" text-anchor="middle">aux_clock_2</text></g>
<g class="component" data-node-id="aux_clock_3"><svg class="component-graphic" x="885.03" y="460.0016" width="40" height="36" viewBox="0 0 40 36" preserveAspectRatio="none" style="display:block;overflow:visible;" overflow="visible"><path d="M 0 36 L 7 36 M 43 36 L 43 24 L 39 24 L 39 36 L 34 36 L 34 24 L 30 24 L 30 36 L 25 36 L 25 24 L 21 24 L 21 36 L 16 36 L 16 24 L 12 24 L 12 36 L 7 36" fill="none" stroke="#000000" stroke-width="1.5" stroke-linecap="square" stroke-linejoin="miter" /></svg><text x="912.03" y="516.0216" font-size="11" font-family="Helvetica,Arial,sans-serif" fill="#000000" text-anchor="middle">aux_clock_3</text></g>
<g class="component" data-node-id="main_clock"><svg class="component-graphic" x="885.03" y="137.9961" width="40" height="36" viewBox="0 0 40 36" preserveAspectRatio="none" style="display:block;overflow:visible;" overflow="visible"><path d="M 0 36 L 7 36 M 43 36 L 43 24 L 39 24 L 39 36 L 34 36 L 34 24 L 30 24 L 30 36 L 25 36 L 25 24 L 21 24 L 21 36 L 16 36 L 16 24 L 12 24 L 12 36 L 7 36" fill="none" stroke="#000000" stroke-width="1.5" stroke-linecap="square" stroke-linejoin="miter" /></svg><text x="912.03" y="194.0161" font-size="11" font-family="Helvetica,Arial,sans-serif" fill="#000000" text-anchor="middle">main_clock</text></g>
<g class="component" data-node-id="main_mux"><svg class="component-graphic" x="583.76" y="60" width="40" height="222" viewBox="0 0 40 222" preserveAspectRatio="none" style="display:block;overflow:visible;" overflow="visible"><polygon points="8,6 8,222 32,212 32,16" fill="none" stroke="#000000" stroke-width="2" /></svg><text x="597.76" y="93.52" font-size="11" font-family="Helvetica,Arial,sans-serif" fill="#000000" text-anchor="middle">0</text><text x="597.76" y="149.52" font-size="11" font-family="Helvetica,Arial,sans-serif" fill="#000000" text-anchor="middle">1</text><text x="597.76" y="205.52" font-size="11" font-family="Helvetica,Arial,sans-serif" fill="#000000" text-anchor="middle">2</text><text x="597.76" y="261.52" font-size="11" font-family="Helvetica,Arial,sans-serif" fill="#000000" text-anchor="middle">3</text><text x="605.76" y="302.02" font-size="11" font-family="Helvetica,Arial,sans-serif" fill="#000000" text-anchor="middle">main_mux</text></g>
<g class="component" data-node-id="post_0"><svg class="component-graphic" x="681.91" y="143.9945" width="40" height="54" viewBox="0 0 40 54" preserveAspectRatio="none" style="display:block;overflow:visible;" overflow="visible"><path d="M 11 18 L 19 18 A 12 12 0 1 1 19 42 L 11 42 Z" fill="none" stroke="#000000" stroke-width="2" stroke-linejoin="miter" /><path d="M 31 30 L 34 30" fill="none" stroke="#000000" stroke-width="2" /><circle cx="37" cy="30" r="3" fill="#ffffff" stroke="#000000" stroke-width="2" /></svg><text x="703.91" y="204.0145" font-size="11" font-family="Helvetica,Arial,sans-serif" fill="#000000" text-anchor="middle">post_0</text></g>
<g class="component" data-node-id="post_1"><svg class="component-graphic" x="776.65" y="143.9945" width="40" height="54" viewBox="0 0 40 54" preserveAspectRatio="none" style="display:block;overflow:visible;" overflow="visible"><polygon points="30.4,36.0 20.0,42.0 9.6,36.0 9.6,24.0 20.0,18.0 30.4,24.0" fill="none" stroke="#000000" stroke-width="2" stroke-linejoin="round" /><path d="M 14.5 30.0 L 25.5 30.0" fill="none" stroke="#000000" stroke-width="1.5" stroke-linecap="round" /><circle cx="20.0" cy="25.5" r="1.4" fill="#000000" /><circle cx="20.0" cy="34.5" r="1.4" fill="#000000" /></svg><text x="798.65" y="204.0145" font-size="11" font-family="Helvetica,Arial,sans-serif" fill="#000000" text-anchor="middle">post_1</text></g>
<g class="component" data-node-id="source_0"><svg class="component-graphic" x="72.78" y="243.9886" width="40" height="19" viewBox="0 0 40 19" preserveAspectRatio="none" style="display:block;overflow:visible;" overflow="visible"><path d="M 0 14 Q 5 9 10 14 T 20 14 T 30 14 T 40 14" fill="none" stroke="#000000" stroke-width="2" stroke-linecap="round" stroke-linejoin="round" /></svg><text x="94.78" y="278.0086" font-size="11" font-family="Helvetica,Arial,sans-serif" fill="#000000" text-anchor="middle">source_0</text></g>
<g class="component" data-node-id="source_1"><svg class="component-graphic" x="275.9" y="188.0092" width="40" height="19" viewBox="0 0 40 19" preserveAspectRatio="none" style="display:block;overflow:visible;" overflow="visible"><path d="M 0 14 Q 5 9 10 14 T 20 14 T 30 14 T 40 14" fill="none" stroke="#000000" stroke-width="2" stroke-linecap="round" stroke-linejoin="round" /></svg><text x="297.9" y="222.0292" font-size="11" font-family="Helvetica,Arial,sans-serif" fill="#000000" text-anchor="middle">source_1</text></g>
<g class="component" data-node-id="source_1"><svg class="component-graphic" x="275.9" y="370.0013" width="40" height="19" viewBox="0 0 40 19" preserveAspectRatio="none" style="display:block;overflow:visible;" overflow="visible"><path d="M 0 14 Q 5 9 10 14 T 20 14 T 30 14 T 40 14" fill="none" stroke="#000000" stroke-width="2" stroke-linecap="round" stroke-linejoin="round" /></svg><text x="297.9" y="404.0213" font-size="11" font-family="Helvetica,Arial,sans-serif" fill="#000000" text-anchor="middle">source_1</text></g>
<g class="component" data-node-id="source_2"><svg class="component-graphic" x="174.34" y="76.003" width="40" height="19" viewBox="0 0 40 19" preserveAspectRatio="none" style="display:block;overflow:visible;" overflow="visible"><path d="M 0 14 Q 5 9 10 14 T 20 14 T 30 14 T 40 14" fill="none" stroke="#000000" stroke-width="2" stroke-linecap="round" stroke-linejoin="round" /></svg><text x="196.34" y="110.023" font-size="11" font-family="Helvetica,Arial,sans-serif" fill="#000000" text-anchor="middle">source_2</text></g>
<g class="component" data-node-id="source_2"><svg class="component-graphic" x="174.34" y="426.0013" width="40" height="19" viewBox="0 0 40 19" preserveAspectRatio="none" style="display:block;overflow:visible;" overflow="visible"><path d="M 0 14 Q 5 9 10 14 T 20 14 T 30 14 T 40 14" fill="none" stroke="#000000" stroke-width="2" stroke-linecap="round" stroke-linejoin="round" /></svg><text x="196.34" y="460.0213" font-size="11" font-family="Helvetica,Arial,sans-serif" fill="#000000" text-anchor="middle">source_2</text></g>
<g class="component" data-node-id="source_3"><svg class="component-graphic" x="377.46" y="132.0061" width="40" height="19" viewBox="0 0 40 19" preserveAspectRatio="none" style="display:block;overflow:visible;" overflow="visible"><path d="M 0 14 Q 5 9 10 14 T 20 14 T 30 14 T 40 14" fill="none" stroke="#000000" stroke-width="2" stroke-linecap="round" stroke-linejoin="round" /></svg><text x="399.46" y="166.0261" font-size="11" font-family="Helvetica,Arial,sans-serif" fill="#000000" text-anchor="middle">source_3</text></g>
<g class="component" data-node-id="source_3"><svg class="component-graphic" x="377.46" y="482.0013" width="40" height="19" viewBox="0 0 40 19" preserveAspectRatio="none" style="display:block;overflow:visible;" overflow="visible"><path d="M 0 14 Q 5 9 10 14 T 20 14 T 30 14 T 40 14" fill="none" stroke="#000000" stroke-width="2" stroke-linecap="round" stroke-linejoin="round" /></svg><text x="399.46" y="516.0213" font-size="11" font-family="Helvetica,Arial,sans-serif" fill="#000000" text-anchor="middle">source_3</text></g>
</svg>
