<?xml version="1.0" encoding="UTF-8"?>
<svg xmlns="http://www.w3.org/2000/svg" xmlns:xhtml="http://www.w3.org/1999/xhtml" viewBox="15 119 672 303.9984" width="672" height="303.9984">
<style>.edge-gap{fill:none;stroke:#fff;stroke-width:6;stroke-linejoin:round}.edge{fill:none;stroke:#20252b;stroke-width:1.6;stroke-linejoin:round;stroke-linecap:square}</style>
<rect x="15" y="119" width="672" height="303.9984" fill="#ffffff"/>
<text x="23" y="137" font-family="Arial,sans-serif" font-size="12" fill="#68707a">02-branch-tree</text>
<polyline class="edge" points="94,273.0009 251,273.0009"/>
<polyline class="edge" points="280,273.0009 429.608,273.0009"/>
<polyline class="edge" points="280,273.0009 290,273.0009 290,200.0009 429.608,200.0009"/>
<polyline class="edge" points="280,273.0009 290,273.0009 290,346.0009 431,346.0009"/>
<polyline class="edge" points="450.392,273.0009 600,273.0009"/>
<polyline class="edge" points="450.392,200.0009 600,200.0009"/>
<polyline class="edge" points="460,346.0009 600,346.0009"/>
<circle cx="290" cy="273.0009" r="3" fill="#000000"/>
<foreignObject x="600" y="164" width="42" height="58" overflow="visible"><div xmlns="http://www.w3.org/1999/xhtml" style="position:relative;left:2px;top:7px;width:40px;height:51px;overflow:visible"><div style="position:relative;box-sizing:border-box;margin:0;padding:0;display:block;width:40px;height:51px;overflow:visible;white-space:nowrap;font-family:Helvetica,Arial,sans-serif;"><div style="position:absolute;left:-2px;top:-7px;width:40px;height:36px"><svg xmlns="http://www.w3.org/2000/svg" width="40" height="36" viewBox="0 0 40 36" preserveAspectRatio="none" style="display:block;overflow:visible;"><path d="M 0 36 L 7 36 M 43 36 L 43 24 L 39 24 L 39 36 L 34 36 L 34 24 L 30 24 L 30 36 L 25 36 L 25 24 L 21 24 L 21 36 L 16 36 L 16 24 L 12 24 L 12 36 L 7 36" fill="none" stroke="#000000" stroke-width="1.5" stroke-linecap="square" stroke-linejoin="miter"/></svg></div><div style="position:absolute;left:62.5%;top:70.58823529411765%;transform:translateX(-50%);text-align:center;font-size:11px;line-height:1;white-space:nowrap;padding-top:4px;">clk_bus</div></div></div></foreignObject>
<foreignObject x="600" y="237" width="42" height="58" overflow="visible"><div xmlns="http://www.w3.org/1999/xhtml" style="position:relative;left:2px;top:7px;width:40px;height:51px;overflow:visible"><div style="position:relative;box-sizing:border-box;margin:0;padding:0;display:block;width:40px;height:51px;overflow:visible;white-space:nowrap;font-family:Helvetica,Arial,sans-serif;"><div style="position:absolute;left:-2px;top:-7px;width:40px;height:36px"><svg xmlns="http://www.w3.org/2000/svg" width="40" height="36" viewBox="0 0 40 36" preserveAspectRatio="none" style="display:block;overflow:visible;"><path d="M 0 36 L 7 36 M 43 36 L 43 24 L 39 24 L 39 36 L 34 36 L 34 24 L 30 24 L 30 36 L 25 36 L 25 24 L 21 24 L 21 36 L 16 36 L 16 24 L 12 24 L 12 36 L 7 36" fill="none" stroke="#000000" stroke-width="1.5" stroke-linecap="square" stroke-linejoin="miter"/></svg></div><div style="position:absolute;left:62.5%;top:70.58823529411765%;transform:translateX(-50%);text-align:center;font-size:11px;line-height:1;white-space:nowrap;padding-top:4px;">clk_cpu</div></div></div></foreignObject>
<foreignObject x="600" y="310" width="42" height="58" overflow="visible"><div xmlns="http://www.w3.org/1999/xhtml" style="position:relative;left:2px;top:7px;width:40px;height:51px;overflow:visible"><div style="position:relative;box-sizing:border-box;margin:0;padding:0;display:block;width:40px;height:51px;overflow:visible;white-space:nowrap;font-family:Helvetica,Arial,sans-serif;"><div style="position:absolute;left:-2px;top:-7px;width:40px;height:36px"><svg xmlns="http://www.w3.org/2000/svg" width="40" height="36" viewBox="0 0 40 36" preserveAspectRatio="none" style="display:block;overflow:visible;"><path d="M 0 36 L 7 36 M 43 36 L 43 24 L 39 24 L 39 36 L 34 36 L 34 24 L 30 24 L 30 36 L 25 36 L 25 24 L 21 24 L 21 36 L 16 36 L 16 24 L 12 24 L 12 36 L 7 36" fill="none" stroke="#000000" stroke-width="1.5" stroke-linecap="square" stroke-linejoin="miter"/></svg></div><div style="position:absolute;left:62.5%;top:70.58823529411765%;transform:translateX(-50%);text-align:center;font-size:11px;line-height:1;white-space:nowrap;padding-top:4px;">clk_dbg</div></div></div></foreignObject>
<foreignObject x="420" y="169.9984" width="42" height="62" overflow="visible"><div xmlns="http://www.w3.org/1999/xhtml" style="position:relative;left:2px;top:7px;width:40px;height:55px;overflow:visible"><div style="position:relative;box-sizing:border-box;margin:0;padding:0;display:block;width:40px;height:55px;overflow:visible;white-space:nowrap;font-family:Helvetica,Arial,sans-serif;"><div style="position:absolute;left:-2px;top:-7px;width:40px;height:54px"><svg xmlns="http://www.w3.org/2000/svg" width="40" height="54" viewBox="0 0 40 54" preserveAspectRatio="none" style="display:block;overflow:visible;"><polygon points="30.4,36.0 20.0,42.0 9.6,36.0 9.6,24.0 20.0,18.0 30.4,24.0" fill="none" stroke="#000000" stroke-width="2" stroke-linejoin="round"/><path d="M 14.5 30.0 L 25.5 30.0" fill="none" stroke="#000000" stroke-width="1.5" stroke-linecap="round"/><circle cx="20.0" cy="25.5" r="1.4" fill="#000000"/></svg><span style="position:absolute;left:50.0%;top:63.888888888888886%;font-size:7px;line-height:1;white-space:nowrap;transform:translate(-50%,-50%);">4</span></div><div style="position:absolute;left:50%;top:80.0%;transform:translateX(-50%);text-align:center;font-size:11px;line-height:1;white-space:nowrap;padding-top:0px;">div_bus</div></div></div></foreignObject>
<foreignObject x="420" y="242.9984" width="42" height="62" overflow="visible"><div xmlns="http://www.w3.org/1999/xhtml" style="position:relative;left:2px;top:7px;width:40px;height:55px;overflow:visible"><div style="position:relative;box-sizing:border-box;margin:0;padding:0;display:block;width:40px;height:55px;overflow:visible;white-space:nowrap;font-family:Helvetica,Arial,sans-serif;"><div style="position:absolute;left:-2px;top:-7px;width:40px;height:54px"><svg xmlns="http://www.w3.org/2000/svg" width="40" height="54" viewBox="0 0 40 54" preserveAspectRatio="none" style="display:block;overflow:visible;"><polygon points="30.4,36.0 20.0,42.0 9.6,36.0 9.6,24.0 20.0,18.0 30.4,24.0" fill="none" stroke="#000000" stroke-width="2" stroke-linejoin="round"/><path d="M 14.5 30.0 L 25.5 30.0" fill="none" stroke="#000000" stroke-width="1.5" stroke-linecap="round"/><circle cx="20.0" cy="25.5" r="1.4" fill="#000000"/><circle cx="20.0" cy="34.5" r="1.4" fill="#000000"/></svg></div><div style="position:absolute;left:50%;top:80.0%;transform:translateX(-50%);text-align:center;font-size:11px;line-height:1;white-space:nowrap;padding-top:0px;">div_cpu</div></div></div></foreignObject>
<foreignObject x="420" y="315.9984" width="42" height="62" overflow="visible"><div xmlns="http://www.w3.org/1999/xhtml" style="position:relative;left:2px;top:7px;width:40px;height:55px;overflow:visible"><div style="position:relative;box-sizing:border-box;margin:0;padding:0;display:block;width:40px;height:55px;overflow:visible;white-space:nowrap;font-family:Helvetica,Arial,sans-serif;"><div style="position:absolute;left:-2px;top:-7px;width:40px;height:54px"><svg xmlns="http://www.w3.org/2000/svg" width="40" height="54" viewBox="0 0 40 54" preserveAspectRatio="none" style="display:block;overflow:visible;"><path d="M 11 18 L 19 18 A 12 12 0 1 1 19 42 L 11 42 Z" fill="none" stroke="#000000" stroke-width="2" stroke-linejoin="miter"/><path d="M 31 30 L 34 30" fill="none" stroke="#000000" stroke-width="2"/><circle cx="37" cy="30" r="3" fill="#ffffff" stroke="#000000" stroke-width="2"/></svg></div><div style="position:absolute;left:50%;top:80.0%;transform:translateX(-50%);text-align:center;font-size:11px;line-height:1;white-space:nowrap;padding-top:0px;">gate_dbg</div></div></div></foreignObject>
<foreignObject x="240" y="242.9984" width="42" height="62" overflow="visible"><div xmlns="http://www.w3.org/1999/xhtml" style="position:relative;left:2px;top:7px;width:40px;height:55px;overflow:visible"><div style="position:relative;box-sizing:border-box;margin:0;padding:0;display:block;width:40px;height:55px;overflow:visible;white-space:nowrap;font-family:Helvetica,Arial,sans-serif;"><div style="position:absolute;left:-2px;top:-7px;width:40px;height:54px"><svg xmlns="http://www.w3.org/2000/svg" width="40" height="54" viewBox="0 0 40 54" preserveAspectRatio="none" style="display:block;overflow:visible;"><path d="M 11 18 L 19 18 A 12 12 0 1 1 19 42 L 11 42 Z" fill="none" stroke="#000000" stroke-width="2" stroke-linejoin="miter"/><path d="M 31 30 L 34 30" fill="none" stroke="#000000" stroke-width="2"/><circle cx="37" cy="30" r="3" fill="#ffffff" stroke="#000000" stroke-width="2"/></svg></div><div style="position:absolute;left:50%;top:80.0%;transform:translateX(-50%);text-align:center;font-size:11px;line-height:1;white-space:nowrap;padding-top:0px;">gate_root</div></div></div></foreignObject>
<foreignObject x="60" y="242.9984" width="42" height="62" overflow="visible"><div xmlns="http://www.w3.org/1999/xhtml" style="position:relative;left:2px;top:7px;width:40px;height:55px;overflow:visible"><div style="position:relative;box-sizing:border-box;margin:0;padding:0;display:block;width:40px;height:55px;overflow:visible;white-space:nowrap;font-family:Helvetica,Arial,sans-serif;"><div style="position:absolute;left:-2px;top:-7px;width:40px;height:54px"><svg xmlns="http://www.w3.org/2000/svg" width="40" height="54" viewBox="0 0 40 54" preserveAspectRatio="none" style="display:block;overflow:visible;"><circle cx="20.0" cy="30" r="14" fill="none" stroke="#000000" stroke-width="2"/><path d="M 12.0 30.0 L 13.3 33.5 L 14.7 35.0 L 16.0 33.5 L 17.3 30.0 L 18.7 26.5 L 20.0 25.0 L 21.3 26.5 L 22.7 30.0 L 24.0 33.5 L 25.3 35.0 L 26.7 33.5 L 28.0 30.0" fill="none" stroke="#000000" stroke-width="1.5" stroke-linecap="round" stroke-linejoin="round"/></svg></div><div style="position:absolute;left:50%;top:80.0%;transform:translateX(-50%);text-align:center;font-size:11px;line-height:1;white-space:nowrap;padding-top:0px;">xtal</div></div></div></foreignObject>
</svg>
