<?xml version="1.0" encoding="UTF-8"?>
<svg xmlns="http://www.w3.org/2000/svg" xmlns:xhtml="http://www.w3.org/1999/xhtml" viewBox="17.55 119 1598.2 474.8728" width="1598.2" height="474.8728">
<style>.edge-gap{fill:none;stroke:#fff;stroke-width:6;stroke-linejoin:round}.edge{fill:none;stroke:#20252b;stroke-width:1.6;stroke-linejoin:round;stroke-linecap:square}</style>
<rect x="17.55" y="119" width="1598.2" height="474.8728" fill="#ffffff"/>
<text x="25.55" y="137" font-family="Arial,sans-serif" font-size="12" fill="#68707a">05-dense-cross-root</text>
<polyline class="edge" points="96.55,268.1319 256.47,268.1319"/>
<polyline class="edge" points="493.288,459.0474 537.4,459.0474 537.4,472.1582 666.77,472.1582"/>
<polyline class="edge" points="689.162,290.1543 875.74,290.1543"/>
<polyline class="edge" points="493.288,468.3814 527.4,468.3814 527.4,529.1637 726.14,529.1637 726.14,346.1543 875.74,346.1543"/>
<polyline class="edge" points="901.74,416.1568 945.34,416.1568 945.34,200.0009 1094.94,200.0009"/>
<polyline class="edge" points="1120.94,200.0009 1317.55,200.0009"/>
<polyline class="edge" points="1339.55,200.0009 1528.75,200.0009"/>
<polyline class="edge" points="96.55,466.9051 256.47,466.9051"/>
<polyline class="edge" points="1349.55,422.8737 1390.56,422.8737 1390.56,474.8737 1528.75,474.8737"/>
<polyline class="edge" points="1349.55,422.8737 1390.56,422.8737 1390.56,370.8737 1528.75,370.8737"/>
<polyline class="edge" points="1339.942,314.8737 1528.75,314.8737"/>
<polyline class="edge" points="292.47,268.1319 321.84,268.1319 321.84,351.718 467.62,351.718"/>
<polyline class="edge" points="292.47,268.1319 321.84,268.1319 321.84,290.1543 668.378,290.1543"/>
<polyline class="edge" points="292.47,466.9051 331.84,466.9051 331.84,407.7194 467.62,407.7194"/>
<polyline class="edge" points="292.47,466.9051 331.84,466.9051 331.84,536.7169 1164.54,536.7169 1164.54,314.8737 1319.158,314.8737"/>
<polyline class="edge" points="496.62,351.718 537.4,351.718 537.4,360.1554 666.77,360.1554"/>
<polyline class="edge" points="496.62,407.7194 537.4,407.7194 537.4,416.1568 666.77,416.1568"/>
<path class="edge" d="M 690.77 416.1568 L 722.14 416.1568 A 4 4 0 0 0 730.14 416.1568 L 873.74 416.1568"/>
<path class="edge" d="M 899.74 318.1543 L 941.34 318.1543 A 4 4 0 0 0 949.34 318.1543 L 955.34 318.1543 L 955.34 422.8737 L 1096.548 422.8737"/>
<path class="edge" d="M 1117.332 422.8737 L 1160.54 422.8737 A 4 4 0 0 0 1168.54 422.8737 L 1320.55 422.8737"/>
<path class="edge" d="M 901.74 416.1568 L 945.34 416.1568 L 945.34 374.8712 L 951.34 374.8712 A 4 4 0 0 0 959.34 374.8712 L 1160.54 374.8712 A 4 4 0 0 0 1168.54 374.8712 L 1386.56 374.8712 A 4 4 0 0 0 1394.56 374.8712 L 1400.56 374.8712 L 1400.56 422.8737 L 1528.75 422.8737"/>
<path class="edge" d="M 493.288 468.3814 L 527.4 468.3814 L 527.4 529.1637 L 1160.54 529.1637 A 4 4 0 0 0 1168.54 529.1637 L 1400.56 529.1637 L 1400.56 526.8737 L 1528.75 526.8737"/>
<path class="edge" d="M 288.47 410.9101 L 321.84 410.9101 L 321.84 463.7144 L 327.84 463.7144 A 4 4 0 0 0 335.84 463.7144 L 458.62 463.7144"/>
<circle cx="321.84" cy="290.1543" r="3" fill="#000000"/>
<circle cx="331.84" cy="466.9051" r="3" fill="#000000"/>
<circle cx="726.14" cy="529.1637" r="3" fill="#000000"/>
<circle cx="945.34" cy="374.8712" r="3" fill="#000000"/>
<circle cx="1390.56" cy="422.8737" r="3" fill="#000000"/>
<foreignObject x="1309.55" y="169.9984" width="42" height="62" overflow="visible"><div xmlns="http://www.w3.org/1999/xhtml" style="position:relative;left:2px;top:7px;width:40px;height:55px;overflow:visible"><div style="position:relative;box-sizing:border-box;margin:0;padding:0;display:block;width:40px;height:55px;overflow:visible;white-space:nowrap;font-family:Helvetica,Arial,sans-serif;"><div style="position:absolute;left:-2px;top:-7px;width:40px;height:54px"><svg xmlns="http://www.w3.org/2000/svg" width="40" height="54" viewBox="0 0 40 54" preserveAspectRatio="none" style="display:block;overflow:visible;"><polygon points="8,15 30,30 8,45" fill="none" stroke="#000000" stroke-width="2" stroke-linejoin="round"/></svg></div><div style="position:absolute;left:50%;top:80.0%;transform:translateX(-50%);text-align:center;font-size:11px;line-height:1;white-space:nowrap;padding-top:0px;">cell_cpu</div></div></div></foreignObject>
<foreignObject x="1528.75" y="164" width="42" height="58" overflow="visible"><div xmlns="http://www.w3.org/1999/xhtml" style="position:relative;left:2px;top:7px;width:40px;height:51px;overflow:visible"><div style="position:relative;box-sizing:border-box;margin:0;padding:0;display:block;width:40px;height:51px;overflow:visible;white-space:nowrap;font-family:Helvetica,Arial,sans-serif;"><div style="position:absolute;left:-2px;top:-7px;width:40px;height:36px"><svg xmlns="http://www.w3.org/2000/svg" width="40" height="36" viewBox="0 0 40 36" preserveAspectRatio="none" style="display:block;overflow:visible;"><path d="M 0 36 L 7 36 M 43 36 L 43 24 L 39 24 L 39 36 L 34 36 L 34 24 L 30 24 L 30 36 L 25 36 L 25 24 L 21 24 L 21 36 L 16 36 L 16 24 L 12 24 L 12 36 L 7 36" fill="none" stroke="#000000" stroke-width="1.5" stroke-linecap="square" stroke-linejoin="miter"/></svg></div><div style="position:absolute;left:62.5%;top:70.58823529411765%;transform:translateX(-50%);text-align:center;font-size:11px;line-height:1;white-space:nowrap;padding-top:4px;">clk_cpu</div></div></div></foreignObject>
<foreignObject x="1528.75" y="278.8728" width="42" height="58" overflow="visible"><div xmlns="http://www.w3.org/1999/xhtml" style="position:relative;left:2px;top:7px;width:40px;height:51px;overflow:visible"><div style="position:relative;box-sizing:border-box;margin:0;padding:0;display:block;width:40px;height:51px;overflow:visible;white-space:nowrap;font-family:Helvetica,Arial,sans-serif;"><div style="position:absolute;left:-2px;top:-7px;width:40px;height:36px"><svg xmlns="http://www.w3.org/2000/svg" width="40" height="36" viewBox="0 0 40 36" preserveAspectRatio="none" style="display:block;overflow:visible;"><path d="M 0 36 L 7 36 M 43 36 L 43 24 L 39 24 L 39 36 L 34 36 L 34 24 L 30 24 L 30 36 L 25 36 L 25 24 L 21 24 L 21 36 L 16 36 L 16 24 L 12 24 L 12 36 L 7 36" fill="none" stroke="#000000" stroke-width="1.5" stroke-linecap="square" stroke-linejoin="miter"/></svg></div><div style="position:absolute;left:62.5%;top:70.58823529411765%;transform:translateX(-50%);text-align:center;font-size:11px;line-height:1;white-space:nowrap;padding-top:4px;">clk_low</div></div></div></foreignObject>
<foreignObject x="1528.75" y="334.8728" width="42" height="58" overflow="visible"><div xmlns="http://www.w3.org/1999/xhtml" style="position:relative;left:2px;top:7px;width:40px;height:51px;overflow:visible"><div style="position:relative;box-sizing:border-box;margin:0;padding:0;display:block;width:40px;height:51px;overflow:visible;white-space:nowrap;font-family:Helvetica,Arial,sans-serif;"><div style="position:absolute;left:-2px;top:-7px;width:40px;height:36px"><svg xmlns="http://www.w3.org/2000/svg" width="40" height="36" viewBox="0 0 40 36" preserveAspectRatio="none" style="display:block;overflow:visible;"><path d="M 0 36 L 7 36 M 43 36 L 43 24 L 39 24 L 39 36 L 34 36 L 34 24 L 30 24 L 30 36 L 25 36 L 25 24 L 21 24 L 21 36 L 16 36 L 16 24 L 12 24 L 12 36 L 7 36" fill="none" stroke="#000000" stroke-width="1.5" stroke-linecap="square" stroke-linejoin="miter"/></svg></div><div style="position:absolute;left:62.5%;top:70.58823529411765%;transform:translateX(-50%);text-align:center;font-size:11px;line-height:1;white-space:nowrap;padding-top:4px;">clk_spi</div></div></div></foreignObject>
<foreignObject x="1528.75" y="386.8728" width="42" height="58" overflow="visible"><div xmlns="http://www.w3.org/1999/xhtml" style="position:relative;left:2px;top:7px;width:40px;height:51px;overflow:visible"><div style="position:relative;box-sizing:border-box;margin:0;padding:0;display:block;width:40px;height:51px;overflow:visible;white-space:nowrap;font-family:Helvetica,Arial,sans-serif;"><div style="position:absolute;left:-2px;top:-7px;width:40px;height:36px"><svg xmlns="http://www.w3.org/2000/svg" width="40" height="36" viewBox="0 0 40 36" preserveAspectRatio="none" style="display:block;overflow:visible;"><path d="M 0 36 L 7 36 M 43 36 L 43 24 L 39 24 L 39 36 L 34 36 L 34 24 L 30 24 L 30 36 L 25 36 L 25 24 L 21 24 L 21 36 L 16 36 L 16 24 L 12 24 L 12 36 L 7 36" fill="none" stroke="#000000" stroke-width="1.5" stroke-linecap="square" stroke-linejoin="miter"/></svg></div><div style="position:absolute;left:62.5%;top:70.58823529411765%;transform:translateX(-50%);text-align:center;font-size:11px;line-height:1;white-space:nowrap;padding-top:4px;">clk_trace</div></div></div></foreignObject>
<foreignObject x="1528.75" y="438.8728" width="42" height="58" overflow="visible"><div xmlns="http://www.w3.org/1999/xhtml" style="position:relative;left:2px;top:7px;width:40px;height:51px;overflow:visible"><div style="position:relative;box-sizing:border-box;margin:0;padding:0;display:block;width:40px;height:51px;overflow:visible;white-space:nowrap;font-family:Helvetica,Arial,sans-serif;"><div style="position:absolute;left:-2px;top:-7px;width:40px;height:36px"><svg xmlns="http://www.w3.org/2000/svg" width="40" height="36" viewBox="0 0 40 36" preserveAspectRatio="none" style="display:block;overflow:visible;"><path d="M 0 36 L 7 36 M 43 36 L 43 24 L 39 24 L 39 36 L 34 36 L 34 24 L 30 24 L 30 36 L 25 36 L 25 24 L 21 24 L 21 36 L 16 36 L 16 24 L 12 24 L 12 36 L 7 36" fill="none" stroke="#000000" stroke-width="1.5" stroke-linecap="square" stroke-linejoin="miter"/></svg></div><div style="position:absolute;left:62.5%;top:70.58823529411765%;transform:translateX(-50%);text-align:center;font-size:11px;line-height:1;white-space:nowrap;padding-top:4px;">clk_uart</div></div></div></foreignObject>
<foreignObject x="1528.75" y="490.8728" width="42" height="58" overflow="visible"><div xmlns="http://www.w3.org/1999/xhtml" style="position:relative;left:2px;top:7px;width:40px;height:51px;overflow:visible"><div style="position:relative;box-sizing:border-box;margin:0;padding:0;display:block;width:40px;height:51px;overflow:visible;white-space:nowrap;font-family:Helvetica,Arial,sans-serif;"><div style="position:absolute;left:-2px;top:-7px;width:40px;height:36px"><svg xmlns="http://www.w3.org/2000/svg" width="40" height="36" viewBox="0 0 40 36" preserveAspectRatio="none" style="display:block;overflow:visible;"><path d="M 0 36 L 7 36 M 43 36 L 43 24 L 39 24 L 39 36 L 34 36 L 34 24 L 30 24 L 30 36 L 25 36 L 25 24 L 21 24 L 21 36 L 16 36 L 16 24 L 12 24 L 12 36 L 7 36" fill="none" stroke="#000000" stroke-width="1.5" stroke-linecap="square" stroke-linejoin="miter"/></svg></div><div style="position:absolute;left:62.5%;top:70.58823529411765%;transform:translateX(-50%);text-align:center;font-size:11px;line-height:1;white-space:nowrap;padding-top:4px;">clk_usb</div></div></div></foreignObject>
<foreignObject x="658.77" y="260.1518" width="42" height="62" overflow="visible"><div xmlns="http://www.w3.org/1999/xhtml" style="position:relative;left:2px;top:7px;width:40px;height:55px;overflow:visible"><div style="position:relative;box-sizing:border-box;margin:0;padding:0;display:block;width:40px;height:55px;overflow:visible;white-space:nowrap;font-family:Helvetica,Arial,sans-serif;"><div style="position:absolute;left:-2px;top:-7px;width:40px;height:54px"><svg xmlns="http://www.w3.org/2000/svg" width="40" height="54" viewBox="0 0 40 54" preserveAspectRatio="none" style="display:block;overflow:visible;"><polygon points="30.4,36.0 20.0,42.0 9.6,36.0 9.6,24.0 20.0,18.0 30.4,24.0" fill="none" stroke="#000000" stroke-width="2" stroke-linejoin="round"/><path d="M 14.5 30.0 L 25.5 30.0" fill="none" stroke="#000000" stroke-width="1.5" stroke-linecap="round"/><circle cx="20.0" cy="25.5" r="1.4" fill="#000000"/><circle cx="20.0" cy="34.5" r="1.4" fill="#000000"/></svg></div><div style="position:absolute;left:50%;top:80.0%;transform:translateX(-50%);text-align:center;font-size:11px;line-height:1;white-space:nowrap;padding-top:0px;">div_a</div></div></div></foreignObject>
<foreignObject x="1309.55" y="284.8712" width="42" height="62" overflow="visible"><div xmlns="http://www.w3.org/1999/xhtml" style="position:relative;left:2px;top:7px;width:40px;height:55px;overflow:visible"><div style="position:relative;box-sizing:border-box;margin:0;padding:0;display:block;width:40px;height:55px;overflow:visible;white-space:nowrap;font-family:Helvetica,Arial,sans-serif;"><div style="position:absolute;left:-2px;top:-7px;width:40px;height:54px"><svg xmlns="http://www.w3.org/2000/svg" width="40" height="54" viewBox="0 0 40 54" preserveAspectRatio="none" style="display:block;overflow:visible;"><polygon points="30.4,36.0 20.0,42.0 9.6,36.0 9.6,24.0 20.0,18.0 30.4,24.0" fill="none" stroke="#000000" stroke-width="2" stroke-linejoin="round"/><path d="M 14.5 30.0 L 25.5 30.0" fill="none" stroke="#000000" stroke-width="1.5" stroke-linecap="round"/><circle cx="20.0" cy="25.5" r="1.4" fill="#000000"/></svg><span style="position:absolute;left:50.0%;top:63.888888888888886%;font-size:7px;line-height:1;white-space:nowrap;transform:translate(-50%,-50%);">8</span></div><div style="position:absolute;left:50%;top:80.0%;transform:translateX(-50%);text-align:center;font-size:11px;line-height:1;white-space:nowrap;padding-top:0px;">div_b</div></div></div></foreignObject>
<foreignObject x="1086.94" y="392.8712" width="42" height="62" overflow="visible"><div xmlns="http://www.w3.org/1999/xhtml" style="position:relative;left:2px;top:7px;width:40px;height:55px;overflow:visible"><div style="position:relative;box-sizing:border-box;margin:0;padding:0;display:block;width:40px;height:55px;overflow:visible;white-space:nowrap;font-family:Helvetica,Arial,sans-serif;"><div style="position:absolute;left:-2px;top:-7px;width:40px;height:54px"><svg xmlns="http://www.w3.org/2000/svg" width="40" height="54" viewBox="0 0 40 54" preserveAspectRatio="none" style="display:block;overflow:visible;"><polygon points="30.4,36.0 20.0,42.0 9.6,36.0 9.6,24.0 20.0,18.0 30.4,24.0" fill="none" stroke="#000000" stroke-width="2" stroke-linejoin="round"/><path d="M 14.5 30.0 L 25.5 30.0" fill="none" stroke="#000000" stroke-width="1.5" stroke-linecap="round"/><circle cx="20.0" cy="25.5" r="1.4" fill="#000000"/><circle cx="20.0" cy="34.5" r="1.4" fill="#000000"/></svg></div><div style="position:absolute;left:50%;top:80.0%;transform:translateX(-50%);text-align:center;font-size:11px;line-height:1;white-space:nowrap;padding-top:0px;">div_periph</div></div></div></foreignObject>
<foreignObject x="867.74" y="386.1543" width="42" height="62" overflow="visible"><div xmlns="http://www.w3.org/1999/xhtml" style="position:relative;left:2px;top:7px;width:40px;height:55px;overflow:visible"><div style="position:relative;box-sizing:border-box;margin:0;padding:0;display:block;width:40px;height:55px;overflow:visible;white-space:nowrap;font-family:Helvetica,Arial,sans-serif;"><div style="position:absolute;left:-2px;top:-7px;width:40px;height:54px"><svg xmlns="http://www.w3.org/2000/svg" width="40" height="54" viewBox="0 0 40 54" preserveAspectRatio="none" style="display:block;overflow:visible;"><rect x="6" y="17" width="28" height="26" rx="5" ry="5" fill="none" stroke="#000000" stroke-width="2"/><path d="M 10 31 L 10 26 L 15 26 L 15 29 L 20 29 L 20 23 L 30 23" fill="none" stroke="#000000" stroke-width="1.5" stroke-linecap="square"/></svg></div><div style="position:absolute;left:50%;top:80.0%;transform:translateX(-50%);text-align:center;font-size:11px;line-height:1;white-space:nowrap;padding-top:0px;">dto_sys</div></div></div></foreignObject>
<foreignObject x="456.62" y="321.7155" width="42" height="62" overflow="visible"><div xmlns="http://www.w3.org/1999/xhtml" style="position:relative;left:2px;top:7px;width:40px;height:55px;overflow:visible"><div style="position:relative;box-sizing:border-box;margin:0;padding:0;display:block;width:40px;height:55px;overflow:visible;white-space:nowrap;font-family:Helvetica,Arial,sans-serif;"><div style="position:absolute;left:-2px;top:-7px;width:40px;height:54px"><svg xmlns="http://www.w3.org/2000/svg" width="40" height="54" viewBox="0 0 40 54" preserveAspectRatio="none" style="display:block;overflow:visible;"><path d="M 11 18 L 19 18 A 12 12 0 1 1 19 42 L 11 42 Z" fill="none" stroke="#000000" stroke-width="2" stroke-linejoin="miter"/><path d="M 31 30 L 34 30" fill="none" stroke="#000000" stroke-width="2"/><circle cx="37" cy="30" r="3" fill="#ffffff" stroke="#000000" stroke-width="2"/></svg></div><div style="position:absolute;left:50%;top:80.0%;transform:translateX(-50%);text-align:center;font-size:11px;line-height:1;white-space:nowrap;padding-top:0px;">gate_a</div></div></div></foreignObject>
<foreignObject x="456.62" y="377.7169" width="42" height="62" overflow="visible"><div xmlns="http://www.w3.org/1999/xhtml" style="position:relative;left:2px;top:7px;width:40px;height:55px;overflow:visible"><div style="position:relative;box-sizing:border-box;margin:0;padding:0;display:block;width:40px;height:55px;overflow:visible;white-space:nowrap;font-family:Helvetica,Arial,sans-serif;"><div style="position:absolute;left:-2px;top:-7px;width:40px;height:54px"><svg xmlns="http://www.w3.org/2000/svg" width="40" height="54" viewBox="0 0 40 54" preserveAspectRatio="none" style="display:block;overflow:visible;"><path d="M 11 18 L 19 18 A 12 12 0 1 1 19 42 L 11 42 Z" fill="none" stroke="#000000" stroke-width="2" stroke-linejoin="miter"/><path d="M 31 30 L 34 30" fill="none" stroke="#000000" stroke-width="2"/><circle cx="37" cy="30" r="3" fill="#ffffff" stroke="#000000" stroke-width="2"/></svg></div><div style="position:absolute;left:50%;top:80.0%;transform:translateX(-50%);text-align:center;font-size:11px;line-height:1;white-space:nowrap;padding-top:0px;">gate_b</div></div></div></foreignObject>
<foreignObject x="1309.55" y="392.8712" width="42" height="62" overflow="visible"><div xmlns="http://www.w3.org/1999/xhtml" style="position:relative;left:2px;top:7px;width:40px;height:55px;overflow:visible"><div style="position:relative;box-sizing:border-box;margin:0;padding:0;display:block;width:40px;height:55px;overflow:visible;white-space:nowrap;font-family:Helvetica,Arial,sans-serif;"><div style="position:absolute;left:-2px;top:-7px;width:40px;height:54px"><svg xmlns="http://www.w3.org/2000/svg" width="40" height="54" viewBox="0 0 40 54" preserveAspectRatio="none" style="display:block;overflow:visible;"><path d="M 11 18 L 19 18 A 12 12 0 1 1 19 42 L 11 42 Z" fill="none" stroke="#000000" stroke-width="2" stroke-linejoin="miter"/><path d="M 31 30 L 34 30" fill="none" stroke="#000000" stroke-width="2"/><circle cx="37" cy="30" r="3" fill="#ffffff" stroke="#000000" stroke-width="2"/></svg></div><div style="position:absolute;left:50%;top:80.0%;transform:translateX(-50%);text-align:center;font-size:11px;line-height:1;white-space:nowrap;padding-top:0px;">gate_periph</div></div></div></foreignObject>
<foreignObject x="1086.94" y="169.9984" width="42" height="62" overflow="visible"><div xmlns="http://www.w3.org/1999/xhtml" style="position:relative;left:2px;top:7px;width:40px;height:55px;overflow:visible"><div style="position:relative;box-sizing:border-box;margin:0;padding:0;display:block;width:40px;height:55px;overflow:visible;white-space:nowrap;font-family:Helvetica,Arial,sans-serif;"><div style="position:absolute;left:-2px;top:-7px;width:40px;height:54px"><svg xmlns="http://www.w3.org/2000/svg" width="40" height="54" viewBox="0 0 40 54" preserveAspectRatio="none" style="display:block;overflow:visible;"><polygon points="8,30 8,13 28,30 8,47" fill="none" stroke="#000000" stroke-width="2" stroke-linejoin="round"/><circle cx="31" cy="30" r="3" fill="#ffffff" stroke="#000000" stroke-width="2"/></svg></div><div style="position:absolute;left:50%;top:80.0%;transform:translateX(-50%);text-align:center;font-size:11px;line-height:1;white-space:nowrap;padding-top:0px;">inv_sys</div></div></div></foreignObject>
<foreignObject x="867.74" y="260.1543" width="42" height="132" overflow="visible"><div xmlns="http://www.w3.org/1999/xhtml" style="position:relative;left:2px;top:7px;width:40px;height:125px;overflow:visible"><div style="position:relative;box-sizing:border-box;margin:0;padding:0;display:block;width:40px;height:125px;overflow:visible;white-space:nowrap;font-family:Helvetica,Arial,sans-serif;"><div style="position:absolute;left:-2px;top:-7px;width:40px;height:110px"><svg xmlns="http://www.w3.org/2000/svg" width="40" height="110" viewBox="0 0 40 110" preserveAspectRatio="none" style="display:block;overflow:visible;"><polygon points="8,6 8,110 32,100 32,16" fill="none" stroke="#000000" stroke-width="2"/></svg><span style="position:absolute;left:35.0%;top:27.27272727272727%;font-size:11px;line-height:1;white-space:nowrap;transform:translate(-50%,-50%);">0</span><span style="position:absolute;left:35.0%;top:78.18181818181819%;font-size:11px;line-height:1;white-space:nowrap;transform:translate(-50%,-50%);">1</span></div><div style="position:absolute;left:50%;top:88.0%;transform:translateX(-50%);text-align:center;font-size:11px;line-height:1;white-space:nowrap;padding-top:4px;">mux_periph</div></div></div></foreignObject>
<foreignObject x="658.77" y="330.1637" width="42" height="188" overflow="visible"><div xmlns="http://www.w3.org/1999/xhtml" style="position:relative;left:2px;top:7px;width:40px;height:181px;overflow:visible"><div style="position:relative;box-sizing:border-box;margin:0;padding:0;display:block;width:40px;height:181px;overflow:visible;white-space:nowrap;font-family:Helvetica,Arial,sans-serif;"><div style="position:absolute;left:-2px;top:-7px;width:40px;height:166px"><svg xmlns="http://www.w3.org/2000/svg" width="40" height="166" viewBox="0 0 40 166" preserveAspectRatio="none" style="display:block;overflow:visible;"><polygon points="8,6 8,166 32,156 32,16" fill="none" stroke="#000000" stroke-width="2"/></svg><span style="position:absolute;left:35.0%;top:18.072289156626507%;font-size:11px;line-height:1;white-space:nowrap;transform:translate(-50%,-50%);">0</span><span style="position:absolute;left:35.0%;top:51.80722891566265%;font-size:11px;line-height:1;white-space:nowrap;transform:translate(-50%,-50%);">1</span><span style="position:absolute;left:35.0%;top:85.54216867469879%;font-size:11px;line-height:1;white-space:nowrap;transform:translate(-50%,-50%);">2</span></div><div style="position:absolute;left:50%;top:91.71270718232044%;transform:translateX(-50%);text-align:center;font-size:11px;line-height:1;white-space:nowrap;padding-top:4px;">mux_sys</div></div></div></foreignObject>
<foreignObject x="62.55" y="238.1294" width="42" height="62" overflow="visible"><div xmlns="http://www.w3.org/1999/xhtml" style="position:relative;left:2px;top:7px;width:40px;height:55px;overflow:visible"><div style="position:relative;box-sizing:border-box;margin:0;padding:0;display:block;width:40px;height:55px;overflow:visible;white-space:nowrap;font-family:Helvetica,Arial,sans-serif;"><div style="position:absolute;left:-2px;top:-7px;width:40px;height:54px"><svg xmlns="http://www.w3.org/2000/svg" width="40" height="54" viewBox="0 0 40 54" preserveAspectRatio="none" style="display:block;overflow:visible;"><circle cx="20.0" cy="30" r="14" fill="none" stroke="#000000" stroke-width="2"/><path d="M 12.0 30.0 L 13.3 33.5 L 14.7 35.0 L 16.0 33.5 L 17.3 30.0 L 18.7 26.5 L 20.0 25.0 L 21.3 26.5 L 22.7 30.0 L 24.0 33.5 L 25.3 35.0 L 26.7 33.5 L 28.0 30.0" fill="none" stroke="#000000" stroke-width="1.5" stroke-linecap="round" stroke-linejoin="round"/></svg></div><div style="position:absolute;left:50%;top:80.0%;transform:translateX(-50%);text-align:center;font-size:11px;line-height:1;white-space:nowrap;padding-top:0px;">osc_a</div></div></div></foreignObject>
<foreignObject x="62.55" y="436.9026" width="42" height="62" overflow="visible"><div xmlns="http://www.w3.org/1999/xhtml" style="position:relative;left:2px;top:7px;width:40px;height:55px;overflow:visible"><div style="position:relative;box-sizing:border-box;margin:0;padding:0;display:block;width:40px;height:55px;overflow:visible;white-space:nowrap;font-family:Helvetica,Arial,sans-serif;"><div style="position:absolute;left:-2px;top:-7px;width:40px;height:54px"><svg xmlns="http://www.w3.org/2000/svg" width="40" height="54" viewBox="0 0 40 54" preserveAspectRatio="none" style="display:block;overflow:visible;"><circle cx="20.0" cy="30" r="14" fill="none" stroke="#000000" stroke-width="2"/><path d="M 12.0 30.0 L 13.3 33.5 L 14.7 35.0 L 16.0 33.5 L 17.3 30.0 L 18.7 26.5 L 20.0 25.0 L 21.3 26.5 L 22.7 30.0 L 24.0 33.5 L 25.3 35.0 L 26.7 33.5 L 28.0 30.0" fill="none" stroke="#000000" stroke-width="1.5" stroke-linecap="round" stroke-linejoin="round"/></svg></div><div style="position:absolute;left:50%;top:80.0%;transform:translateX(-50%);text-align:center;font-size:11px;line-height:1;white-space:nowrap;padding-top:0px;">osc_b</div></div></div></foreignObject>
<foreignObject x="254.47" y="238.1344" width="42" height="72" overflow="visible"><div xmlns="http://www.w3.org/1999/xhtml" style="position:relative;left:2px;top:7px;width:40px;height:65px;overflow:visible"><div style="position:relative;box-sizing:border-box;margin:0;padding:0;display:block;width:40px;height:65px;overflow:visible;white-space:nowrap;font-family:Helvetica,Arial,sans-serif;"><div style="position:absolute;left:-2px;top:-7px;width:40px;height:54px"><svg xmlns="http://www.w3.org/2000/svg" width="40" height="54" viewBox="0 0 40 54" preserveAspectRatio="none" style="display:block;overflow:visible;"><path d="M 2 16 L 30 16 L 38 30 L 30 44 L 2 44 L 2 38 M 2 22 L 2 16" fill="none" stroke="#000000" stroke-width="2" stroke-linejoin="round" stroke-linecap="round"/><path d="M 2 30 L 8 30" fill="none" stroke="#000000" stroke-width="2" stroke-linecap="round"/></svg><span style="position:absolute;left:40.0%;top:55.55555555555556%;font-size:11px;line-height:1;white-space:nowrap;transform:translate(-50%,-50%);">SC</span></div><div style="position:absolute;left:50%;top:83.07692307692308%;transform:translateX(-50%);text-align:center;font-size:11px;line-height:1;white-space:nowrap;padding-top:0px;">pll_a</div></div></div></foreignObject>
<foreignObject x="254.47" y="436.9076" width="42" height="72" overflow="visible"><div xmlns="http://www.w3.org/1999/xhtml" style="position:relative;left:2px;top:7px;width:40px;height:65px;overflow:visible"><div style="position:relative;box-sizing:border-box;margin:0;padding:0;display:block;width:40px;height:65px;overflow:visible;white-space:nowrap;font-family:Helvetica,Arial,sans-serif;"><div style="position:absolute;left:-2px;top:-7px;width:40px;height:54px"><svg xmlns="http://www.w3.org/2000/svg" width="40" height="54" viewBox="0 0 40 54" preserveAspectRatio="none" style="display:block;overflow:visible;"><path d="M 2 16 L 30 16 L 38 30 L 30 44 L 2 44 L 2 38 M 2 22 L 2 16" fill="none" stroke="#000000" stroke-width="2" stroke-linejoin="round" stroke-linecap="round"/><path d="M 2 30 L 8 30" fill="none" stroke="#000000" stroke-width="2" stroke-linecap="round"/></svg><span style="position:absolute;left:40.0%;top:55.55555555555556%;font-size:11px;line-height:1;white-space:nowrap;transform:translate(-50%,-50%);">SC</span></div><div style="position:absolute;left:50%;top:83.07692307692308%;transform:translateX(-50%);text-align:center;font-size:11px;line-height:1;white-space:nowrap;padding-top:0px;">pll_b</div></div></div></foreignObject>
<foreignObject x="456.62" y="433.7169" width="42" height="72" overflow="visible"><div xmlns="http://www.w3.org/1999/xhtml" style="position:relative;left:2px;top:7px;width:40px;height:65px;overflow:visible"><div style="position:relative;box-sizing:border-box;margin:0;padding:0;display:block;width:40px;height:65px;overflow:visible;white-space:nowrap;font-family:Helvetica,Arial,sans-serif;"><div style="position:absolute;left:-2px;top:-7px;width:40px;height:54px"><svg xmlns="http://www.w3.org/2000/svg" width="40" height="54" viewBox="0 0 40 54" preserveAspectRatio="none" style="display:block;overflow:visible;"><path d="M 2 16 L 34 16 L 38 30 L 34 44 L 2 44 L 2 38 M 2 22 L 2 16" fill="none" stroke="#000000" stroke-width="2" stroke-linejoin="round" stroke-linecap="round"/><path d="M 2 30 L 8 30" fill="none" stroke="#000000" stroke-width="2" stroke-linecap="round"/></svg><span style="position:absolute;left:40.0%;top:55.55555555555556%;font-size:11px;line-height:1;white-space:nowrap;transform:translate(-50%,-50%);">INNO</span></div><div style="position:absolute;left:50%;top:83.07692307692308%;transform:translateX(-50%);text-align:center;font-size:11px;line-height:1;white-space:nowrap;padding-top:0px;">pll_dual</div></div></div></foreignObject>
<foreignObject x="254.47" y="380.9076" width="42" height="62" overflow="visible"><div xmlns="http://www.w3.org/1999/xhtml" style="position:relative;left:2px;top:7px;width:40px;height:55px;overflow:visible"><div style="position:relative;box-sizing:border-box;margin:0;padding:0;display:block;width:40px;height:55px;overflow:visible;white-space:nowrap;font-family:Helvetica,Arial,sans-serif;"><div style="position:absolute;left:-2px;top:-7px;width:40px;height:54px"><svg xmlns="http://www.w3.org/2000/svg" width="40" height="54" viewBox="0 0 40 54" preserveAspectRatio="none" style="display:block;overflow:visible;"><circle cx="20.0" cy="30" r="14" fill="none" stroke="#000000" stroke-width="2"/><path d="M 12.0 30.0 L 13.3 33.5 L 14.7 35.0 L 16.0 33.5 L 17.3 30.0 L 18.7 26.5 L 20.0 25.0 L 21.3 26.5 L 22.7 30.0 L 24.0 33.5 L 25.3 35.0 L 26.7 33.5 L 28.0 30.0" fill="none" stroke="#000000" stroke-width="1.5" stroke-linecap="round" stroke-linejoin="round"/></svg></div><div style="position:absolute;left:50%;top:80.0%;transform:translateX(-50%);text-align:center;font-size:11px;line-height:1;white-space:nowrap;padding-top:0px;">ref_pad</div></div></div></foreignObject>
</svg>
