<?xml version="1.0" encoding="UTF-8"?>
<svg xmlns="http://www.w3.org/2000/svg" viewBox="44.83 122 1266.83 1461.02" width="1266.83" height="1461.02">
<style>.edge-gap{fill:none;stroke:#fff;stroke-width:6;stroke-linejoin:round}.edge{fill:none;stroke:#20252b;stroke-width:1.6;stroke-linejoin:round;stroke-linecap:square}</style>
<rect x="44.83" y="122" width="1266.83" height="1461.02" fill="#ffffff"/>
<text x="52.83" y="140" font-family="Arial,sans-serif" font-size="12" fill="#68707a">23-middle-column-low-use-sources</text>
<polyline class="edge" points="129.83,197.0025 239.9,197.0025"/>
<polyline class="edge" points="703.16,374.005 793.18,374.005"/>
<polyline class="edge" points="703.16,430.005 793.18,430.005"/>
<polyline class="edge" points="817.18,402.005 884.51,402.005"/>
<polyline class="edge" points="906.51,402.005 974.66,402.005"/>
<polyline class="edge" points="543.86,197.0025 605.1,197.0025 605.1,551.0075 674.16,551.0075"/>
<polyline class="edge" points="703.16,551.0075 793.18,551.0075"/>
<polyline class="edge" points="703.16,607.0075 793.18,607.0075"/>
<polyline class="edge" points="817.18,579.0075 884.51,579.0075"/>
<polyline class="edge" points="906.51,579.0075 974.66,579.0075"/>
<polyline class="edge" points="543.86,197.0025 605.1,197.0025 605.1,728.01 674.16,728.01"/>
<polyline class="edge" points="268.9,197.0025 380.988,197.0025"/>
<polyline class="edge" points="703.16,728.01 793.18,728.01"/>
<polyline class="edge" points="703.16,784.01 793.18,784.01"/>
<polyline class="edge" points="817.18,756.01 884.51,756.01"/>
<polyline class="edge" points="906.51,756.01 974.66,756.01"/>
<polyline class="edge" points="543.86,197.0025 605.1,197.0025 605.1,905.0125 674.16,905.0125"/>
<polyline class="edge" points="703.16,905.0125 793.18,905.0125"/>
<polyline class="edge" points="703.16,961.0125 793.18,961.0125"/>
<polyline class="edge" points="817.18,933.0125 884.51,933.0125"/>
<polyline class="edge" points="906.51,933.0125 974.66,933.0125"/>
<polyline class="edge" points="543.86,197.0025 605.1,197.0025 605.1,1082.015 674.16,1082.015"/>
<polyline class="edge" points="401.772,197.0025 521.86,197.0025"/>
<polyline class="edge" points="703.16,1082.015 793.18,1082.015"/>
<polyline class="edge" points="703.16,1138.015 793.18,1138.015"/>
<polyline class="edge" points="817.18,1110.015 884.51,1110.015"/>
<polyline class="edge" points="906.51,1110.015 974.66,1110.015"/>
<polyline class="edge" points="543.86,197.0025 605.1,197.0025 605.1,1259.0175 674.16,1259.0175"/>
<polyline class="edge" points="703.16,1259.0175 793.18,1259.0175"/>
<polyline class="edge" points="703.16,1315.0175 793.18,1315.0175"/>
<polyline class="edge" points="817.18,1287.0175 884.51,1287.0175"/>
<polyline class="edge" points="906.51,1287.0175 974.66,1287.0175"/>
<polyline class="edge" points="543.86,197.0025 605.1,197.0025 605.1,1436.02 674.16,1436.02"/>
<polyline class="edge" points="543.86,197.0025 674.16,197.0025"/>
<polyline class="edge" points="703.16,1436.02 793.18,1436.02"/>
<polyline class="edge" points="703.16,1492.02 793.18,1492.02"/>
<polyline class="edge" points="817.18,1464.02 884.51,1464.02"/>
<polyline class="edge" points="906.51,1464.02 974.66,1464.02"/>
<polyline class="edge" points="703.16,197.0025 793.18,197.0025"/>
<polyline class="edge" points="703.16,253.0025 793.18,253.0025"/>
<polyline class="edge" points="817.18,225.0025 884.51,225.0025"/>
<polyline class="edge" points="906.51,225.0025 974.66,225.0025"/>
<polyline class="edge" points="543.86,197.0025 605.1,197.0025 605.1,374.005 674.16,374.005"/>
<circle cx="605.1" cy="197.0025" r="3" fill="#000000"/>
<circle cx="605.1" cy="374.005" r="3" fill="#000000"/>
<circle cx="605.1" cy="551.0075" r="3" fill="#000000"/>
<circle cx="605.1" cy="728.01" r="3" fill="#000000"/>
<circle cx="605.1" cy="905.0125" r="3" fill="#000000"/>
<circle cx="605.1" cy="1082.015" r="3" fill="#000000"/>
<circle cx="605.1" cy="1259.0175" r="3" fill="#000000"/>
<g class="component" data-node-id="cell_00"><svg class="component-graphic" x="876.51" y="195" width="40" height="54" viewBox="0 0 40 54" preserveAspectRatio="none" style="display:block;overflow:visible;" overflow="visible"><polygon points="8,15 30,30 8,45" fill="none" stroke="#000000" stroke-width="2" stroke-linejoin="round" /></svg><text x="898.51" y="255.02" font-size="11" font-family="Helvetica,Arial,sans-serif" fill="#000000" text-anchor="middle">cell_00</text></g>
<g class="component" data-node-id="cell_01"><svg class="component-graphic" x="876.51" y="372.0025" width="40" height="54" viewBox="0 0 40 54" preserveAspectRatio="none" style="display:block;overflow:visible;" overflow="visible"><polygon points="8,15 30,30 8,45" fill="none" stroke="#000000" stroke-width="2" stroke-linejoin="round" /></svg><text x="898.51" y="432.0225" font-size="11" font-family="Helvetica,Arial,sans-serif" fill="#000000" text-anchor="middle">cell_01</text></g>
<g class="component" data-node-id="cell_02"><svg class="component-graphic" x="876.51" y="549.005" width="40" height="54" viewBox="0 0 40 54" preserveAspectRatio="none" style="display:block;overflow:visible;" overflow="visible"><polygon points="8,15 30,30 8,45" fill="none" stroke="#000000" stroke-width="2" stroke-linejoin="round" /></svg><text x="898.51" y="609.025" font-size="11" font-family="Helvetica,Arial,sans-serif" fill="#000000" text-anchor="middle">cell_02</text></g>
<g class="component" data-node-id="cell_03"><svg class="component-graphic" x="876.51" y="726.0075" width="40" height="54" viewBox="0 0 40 54" preserveAspectRatio="none" style="display:block;overflow:visible;" overflow="visible"><polygon points="8,15 30,30 8,45" fill="none" stroke="#000000" stroke-width="2" stroke-linejoin="round" /></svg><text x="898.51" y="786.0275" font-size="11" font-family="Helvetica,Arial,sans-serif" fill="#000000" text-anchor="middle">cell_03</text></g>
<g class="component" data-node-id="cell_04"><svg class="component-graphic" x="876.51" y="903.01" width="40" height="54" viewBox="0 0 40 54" preserveAspectRatio="none" style="display:block;overflow:visible;" overflow="visible"><polygon points="8,15 30,30 8,45" fill="none" stroke="#000000" stroke-width="2" stroke-linejoin="round" /></svg><text x="898.51" y="963.03" font-size="11" font-family="Helvetica,Arial,sans-serif" fill="#000000" text-anchor="middle">cell_04</text></g>
<g class="component" data-node-id="cell_05"><svg class="component-graphic" x="876.51" y="1080.0125" width="40" height="54" viewBox="0 0 40 54" preserveAspectRatio="none" style="display:block;overflow:visible;" overflow="visible"><polygon points="8,15 30,30 8,45" fill="none" stroke="#000000" stroke-width="2" stroke-linejoin="round" /></svg><text x="898.51" y="1140.0325" font-size="11" font-family="Helvetica,Arial,sans-serif" fill="#000000" text-anchor="middle">cell_05</text></g>
<g class="component" data-node-id="cell_06"><svg class="component-graphic" x="876.51" y="1257.015" width="40" height="54" viewBox="0 0 40 54" preserveAspectRatio="none" style="display:block;overflow:visible;" overflow="visible"><polygon points="8,15 30,30 8,45" fill="none" stroke="#000000" stroke-width="2" stroke-linejoin="round" /></svg><text x="898.51" y="1317.035" font-size="11" font-family="Helvetica,Arial,sans-serif" fill="#000000" text-anchor="middle">cell_06</text></g>
<g class="component" data-node-id="cell_07"><svg class="component-graphic" x="876.51" y="1434.0175" width="40" height="54" viewBox="0 0 40 54" preserveAspectRatio="none" style="display:block;overflow:visible;" overflow="visible"><polygon points="8,15 30,30 8,45" fill="none" stroke="#000000" stroke-width="2" stroke-linejoin="round" /></svg><text x="898.51" y="1494.0375" font-size="11" font-family="Helvetica,Arial,sans-serif" fill="#000000" text-anchor="middle">cell_07</text></g>
<g class="component" data-node-id="clock_00"><svg class="component-graphic" x="974.66" y="189.0016" width="40" height="36" viewBox="0 0 40 36" preserveAspectRatio="none" style="display:block;overflow:visible;" overflow="visible"><path d="M 0 36 L 7 36 M 43 36 L 43 24 L 39 24 L 39 36 L 34 36 L 34 24 L 30 24 L 30 36 L 25 36 L 25 24 L 21 24 L 21 36 L 16 36 L 16 24 L 12 24 L 12 36 L 7 36" fill="none" stroke="#000000" stroke-width="1.5" stroke-linecap="square" stroke-linejoin="miter" /></svg><text x="1001.66" y="245.0216" font-size="11" font-family="Helvetica,Arial,sans-serif" fill="#000000" text-anchor="middle">clock_00</text></g>
<g class="component" data-node-id="clock_01"><svg class="component-graphic" x="974.66" y="366.0041" width="40" height="36" viewBox="0 0 40 36" preserveAspectRatio="none" style="display:block;overflow:visible;" overflow="visible"><path d="M 0 36 L 7 36 M 43 36 L 43 24 L 39 24 L 39 36 L 34 36 L 34 24 L 30 24 L 30 36 L 25 36 L 25 24 L 21 24 L 21 36 L 16 36 L 16 24 L 12 24 L 12 36 L 7 36" fill="none" stroke="#000000" stroke-width="1.5" stroke-linecap="square" stroke-linejoin="miter" /></svg><text x="1001.66" y="422.0241" font-size="11" font-family="Helvetica,Arial,sans-serif" fill="#000000" text-anchor="middle">clock_01</text></g>
<g class="component" data-node-id="clock_02"><svg class="component-graphic" x="974.66" y="543.0066" width="40" height="36" viewBox="0 0 40 36" preserveAspectRatio="none" style="display:block;overflow:visible;" overflow="visible"><path d="M 0 36 L 7 36 M 43 36 L 43 24 L 39 24 L 39 36 L 34 36 L 34 24 L 30 24 L 30 36 L 25 36 L 25 24 L 21 24 L 21 36 L 16 36 L 16 24 L 12 24 L 12 36 L 7 36" fill="none" stroke="#000000" stroke-width="1.5" stroke-linecap="square" stroke-linejoin="miter" /></svg><text x="1001.66" y="599.0266" font-size="11" font-family="Helvetica,Arial,sans-serif" fill="#000000" text-anchor="middle">clock_02</text></g>
<g class="component" data-node-id="clock_03"><svg class="component-graphic" x="974.66" y="720.0091" width="40" height="36" viewBox="0 0 40 36" preserveAspectRatio="none" style="display:block;overflow:visible;" overflow="visible"><path d="M 0 36 L 7 36 M 43 36 L 43 24 L 39 24 L 39 36 L 34 36 L 34 24 L 30 24 L 30 36 L 25 36 L 25 24 L 21 24 L 21 36 L 16 36 L 16 24 L 12 24 L 12 36 L 7 36" fill="none" stroke="#000000" stroke-width="1.5" stroke-linecap="square" stroke-linejoin="miter" /></svg><text x="1001.66" y="776.0291" font-size="11" font-family="Helvetica,Arial,sans-serif" fill="#000000" text-anchor="middle">clock_03</text></g>
<g class="component" data-node-id="clock_04"><svg class="component-graphic" x="974.66" y="897.0116" width="40" height="36" viewBox="0 0 40 36" preserveAspectRatio="none" style="display:block;overflow:visible;" overflow="visible"><path d="M 0 36 L 7 36 M 43 36 L 43 24 L 39 24 L 39 36 L 34 36 L 34 24 L 30 24 L 30 36 L 25 36 L 25 24 L 21 24 L 21 36 L 16 36 L 16 24 L 12 24 L 12 36 L 7 36" fill="none" stroke="#000000" stroke-width="1.5" stroke-linecap="square" stroke-linejoin="miter" /></svg><text x="1001.66" y="953.0316" font-size="11" font-family="Helvetica,Arial,sans-serif" fill="#000000" text-anchor="middle">clock_04</text></g>
<g class="component" data-node-id="clock_05"><svg class="component-graphic" x="974.66" y="1074.0141" width="40" height="36" viewBox="0 0 40 36" preserveAspectRatio="none" style="display:block;overflow:visible;" overflow="visible"><path d="M 0 36 L 7 36 M 43 36 L 43 24 L 39 24 L 39 36 L 34 36 L 34 24 L 30 24 L 30 36 L 25 36 L 25 24 L 21 24 L 21 36 L 16 36 L 16 24 L 12 24 L 12 36 L 7 36" fill="none" stroke="#000000" stroke-width="1.5" stroke-linecap="square" stroke-linejoin="miter" /></svg><text x="1001.66" y="1130.0341" font-size="11" font-family="Helvetica,Arial,sans-serif" fill="#000000" text-anchor="middle">clock_05</text></g>
<g class="component" data-node-id="clock_06"><svg class="component-graphic" x="974.66" y="1251.0166" width="40" height="36" viewBox="0 0 40 36" preserveAspectRatio="none" style="display:block;overflow:visible;" overflow="visible"><path d="M 0 36 L 7 36 M 43 36 L 43 24 L 39 24 L 39 36 L 34 36 L 34 24 L 30 24 L 30 36 L 25 36 L 25 24 L 21 24 L 21 36 L 16 36 L 16 24 L 12 24 L 12 36 L 7 36" fill="none" stroke="#000000" stroke-width="1.5" stroke-linecap="square" stroke-linejoin="miter" /></svg><text x="1001.66" y="1307.0366" font-size="11" font-family="Helvetica,Arial,sans-serif" fill="#000000" text-anchor="middle">clock_06</text></g>
<g class="component" data-node-id="clock_07"><svg class="component-graphic" x="974.66" y="1428.0191" width="40" height="36" viewBox="0 0 40 36" preserveAspectRatio="none" style="display:block;overflow:visible;" overflow="visible"><path d="M 0 36 L 7 36 M 43 36 L 43 24 L 39 24 L 39 36 L 34 36 L 34 24 L 30 24 L 30 36 L 25 36 L 25 24 L 21 24 L 21 36 L 16 36 L 16 24 L 12 24 L 12 36 L 7 36" fill="none" stroke="#000000" stroke-width="1.5" stroke-linecap="square" stroke-linejoin="miter" /></svg><text x="1001.66" y="1484.0391" font-size="11" font-family="Helvetica,Arial,sans-serif" fill="#000000" text-anchor="middle">clock_07</text></g>
<g class="component" data-node-id="common_branch_00"><svg class="component-graphic" x="663.16" y="167" width="40" height="54" viewBox="0 0 40 54" preserveAspectRatio="none" style="display:block;overflow:visible;" overflow="visible"><path d="M 11 18 L 19 18 A 12 12 0 1 1 19 42 L 11 42 Z" fill="none" stroke="#000000" stroke-width="2" stroke-linejoin="miter" /><path d="M 31 30 L 34 30" fill="none" stroke="#000000" stroke-width="2" /><circle cx="37" cy="30" r="3" fill="#ffffff" stroke="#000000" stroke-width="2" /></svg><text x="685.16" y="227.02" font-size="11" font-family="Helvetica,Arial,sans-serif" fill="#000000" text-anchor="middle">common_branch_00</text></g>
<g class="component" data-node-id="common_branch_01"><svg class="component-graphic" x="663.16" y="344.0025" width="40" height="54" viewBox="0 0 40 54" preserveAspectRatio="none" style="display:block;overflow:visible;" overflow="visible"><path d="M 11 18 L 19 18 A 12 12 0 1 1 19 42 L 11 42 Z" fill="none" stroke="#000000" stroke-width="2" stroke-linejoin="miter" /><path d="M 31 30 L 34 30" fill="none" stroke="#000000" stroke-width="2" /><circle cx="37" cy="30" r="3" fill="#ffffff" stroke="#000000" stroke-width="2" /></svg><text x="685.16" y="404.0225" font-size="11" font-family="Helvetica,Arial,sans-serif" fill="#000000" text-anchor="middle">common_branch_01</text></g>
<g class="component" data-node-id="common_branch_02"><svg class="component-graphic" x="663.16" y="521.005" width="40" height="54" viewBox="0 0 40 54" preserveAspectRatio="none" style="display:block;overflow:visible;" overflow="visible"><path d="M 11 18 L 19 18 A 12 12 0 1 1 19 42 L 11 42 Z" fill="none" stroke="#000000" stroke-width="2" stroke-linejoin="miter" /><path d="M 31 30 L 34 30" fill="none" stroke="#000000" stroke-width="2" /><circle cx="37" cy="30" r="3" fill="#ffffff" stroke="#000000" stroke-width="2" /></svg><text x="685.16" y="581.025" font-size="11" font-family="Helvetica,Arial,sans-serif" fill="#000000" text-anchor="middle">common_branch_02</text></g>
<g class="component" data-node-id="common_branch_03"><svg class="component-graphic" x="663.16" y="698.0075" width="40" height="54" viewBox="0 0 40 54" preserveAspectRatio="none" style="display:block;overflow:visible;" overflow="visible"><path d="M 11 18 L 19 18 A 12 12 0 1 1 19 42 L 11 42 Z" fill="none" stroke="#000000" stroke-width="2" stroke-linejoin="miter" /><path d="M 31 30 L 34 30" fill="none" stroke="#000000" stroke-width="2" /><circle cx="37" cy="30" r="3" fill="#ffffff" stroke="#000000" stroke-width="2" /></svg><text x="685.16" y="758.0275" font-size="11" font-family="Helvetica,Arial,sans-serif" fill="#000000" text-anchor="middle">common_branch_03</text></g>
<g class="component" data-node-id="common_branch_04"><svg class="component-graphic" x="663.16" y="875.01" width="40" height="54" viewBox="0 0 40 54" preserveAspectRatio="none" style="display:block;overflow:visible;" overflow="visible"><path d="M 11 18 L 19 18 A 12 12 0 1 1 19 42 L 11 42 Z" fill="none" stroke="#000000" stroke-width="2" stroke-linejoin="miter" /><path d="M 31 30 L 34 30" fill="none" stroke="#000000" stroke-width="2" /><circle cx="37" cy="30" r="3" fill="#ffffff" stroke="#000000" stroke-width="2" /></svg><text x="685.16" y="935.03" font-size="11" font-family="Helvetica,Arial,sans-serif" fill="#000000" text-anchor="middle">common_branch_04</text></g>
<g class="component" data-node-id="common_branch_05"><svg class="component-graphic" x="663.16" y="1052.0125" width="40" height="54" viewBox="0 0 40 54" preserveAspectRatio="none" style="display:block;overflow:visible;" overflow="visible"><path d="M 11 18 L 19 18 A 12 12 0 1 1 19 42 L 11 42 Z" fill="none" stroke="#000000" stroke-width="2" stroke-linejoin="miter" /><path d="M 31 30 L 34 30" fill="none" stroke="#000000" stroke-width="2" /><circle cx="37" cy="30" r="3" fill="#ffffff" stroke="#000000" stroke-width="2" /></svg><text x="685.16" y="1112.0325" font-size="11" font-family="Helvetica,Arial,sans-serif" fill="#000000" text-anchor="middle">common_branch_05</text></g>
<g class="component" data-node-id="common_branch_06"><svg class="component-graphic" x="663.16" y="1229.015" width="40" height="54" viewBox="0 0 40 54" preserveAspectRatio="none" style="display:block;overflow:visible;" overflow="visible"><path d="M 11 18 L 19 18 A 12 12 0 1 1 19 42 L 11 42 Z" fill="none" stroke="#000000" stroke-width="2" stroke-linejoin="miter" /><path d="M 31 30 L 34 30" fill="none" stroke="#000000" stroke-width="2" /><circle cx="37" cy="30" r="3" fill="#ffffff" stroke="#000000" stroke-width="2" /></svg><text x="685.16" y="1289.035" font-size="11" font-family="Helvetica,Arial,sans-serif" fill="#000000" text-anchor="middle">common_branch_06</text></g>
<g class="component" data-node-id="common_branch_07"><svg class="component-graphic" x="663.16" y="1406.0175" width="40" height="54" viewBox="0 0 40 54" preserveAspectRatio="none" style="display:block;overflow:visible;" overflow="visible"><path d="M 11 18 L 19 18 A 12 12 0 1 1 19 42 L 11 42 Z" fill="none" stroke="#000000" stroke-width="2" stroke-linejoin="miter" /><path d="M 31 30 L 34 30" fill="none" stroke="#000000" stroke-width="2" /><circle cx="37" cy="30" r="3" fill="#ffffff" stroke="#000000" stroke-width="2" /></svg><text x="685.16" y="1466.0375" font-size="11" font-family="Helvetica,Arial,sans-serif" fill="#000000" text-anchor="middle">common_branch_07</text></g>
<g class="component" data-node-id="common_source"><svg class="component-graphic" x="89.83" y="183.0013" width="40" height="19" viewBox="0 0 40 19" preserveAspectRatio="none" style="display:block;overflow:visible;" overflow="visible"><path d="M 0 14 Q 5 9 10 14 T 20 14 T 30 14 T 40 14" fill="none" stroke="#000000" stroke-width="2" stroke-linecap="round" stroke-linejoin="round" /></svg><text x="111.83" y="217.0213" font-size="11" font-family="Helvetica,Arial,sans-serif" fill="#000000" text-anchor="middle">common_source</text></g>
<g class="component" data-node-id="common_stage_1"><svg class="component-graphic" x="228.9" y="167" width="40" height="54" viewBox="0 0 40 54" preserveAspectRatio="none" style="display:block;overflow:visible;" overflow="visible"><path d="M 11 18 L 19 18 A 12 12 0 1 1 19 42 L 11 42 Z" fill="none" stroke="#000000" stroke-width="2" stroke-linejoin="miter" /><path d="M 31 30 L 34 30" fill="none" stroke="#000000" stroke-width="2" /><circle cx="37" cy="30" r="3" fill="#ffffff" stroke="#000000" stroke-width="2" /></svg><text x="250.9" y="227.02" font-size="11" font-family="Helvetica,Arial,sans-serif" fill="#000000" text-anchor="middle">common_stage_1</text></g>
<g class="component" data-node-id="common_stage_2"><svg class="component-graphic" x="371.38" y="167" width="40" height="54" viewBox="0 0 40 54" preserveAspectRatio="none" style="display:block;overflow:visible;" overflow="visible"><polygon points="30.4,36.0 20.0,42.0 9.6,36.0 9.6,24.0 20.0,18.0 30.4,24.0" fill="none" stroke="#000000" stroke-width="2" stroke-linejoin="round" /><path d="M 14.5 30.0 L 25.5 30.0" fill="none" stroke="#000000" stroke-width="1.5" stroke-linecap="round" /><circle cx="20.0" cy="25.5" r="1.4" fill="#000000" /><circle cx="20.0" cy="34.5" r="1.4" fill="#000000" /></svg><text x="393.38" y="227.02" font-size="11" font-family="Helvetica,Arial,sans-serif" fill="#000000" text-anchor="middle">common_stage_2</text></g>
<g class="component" data-node-id="common_stage_3"><svg class="component-graphic" x="513.86" y="167" width="40" height="54" viewBox="0 0 40 54" preserveAspectRatio="none" style="display:block;overflow:visible;" overflow="visible"><polygon points="8,15 30,30 8,45" fill="none" stroke="#000000" stroke-width="2" stroke-linejoin="round" /></svg><text x="535.86" y="227.02" font-size="11" font-family="Helvetica,Arial,sans-serif" fill="#000000" text-anchor="middle">common_stage_3</text></g>
<g class="component" data-node-id="local_source_00"><svg class="component-graphic" x="663.16" y="239.0013" width="40" height="19" viewBox="0 0 40 19" preserveAspectRatio="none" style="display:block;overflow:visible;" overflow="visible"><path d="M 0 14 Q 5 9 10 14 T 20 14 T 30 14 T 40 14" fill="none" stroke="#000000" stroke-width="2" stroke-linecap="round" stroke-linejoin="round" /></svg><text x="685.16" y="273.0213" font-size="11" font-family="Helvetica,Arial,sans-serif" fill="#000000" text-anchor="middle">local_source_00</text></g>
<g class="component" data-node-id="local_source_01"><svg class="component-graphic" x="663.16" y="416.0038" width="40" height="19" viewBox="0 0 40 19" preserveAspectRatio="none" style="display:block;overflow:visible;" overflow="visible"><path d="M 0 14 Q 5 9 10 14 T 20 14 T 30 14 T 40 14" fill="none" stroke="#000000" stroke-width="2" stroke-linecap="round" stroke-linejoin="round" /></svg><text x="685.16" y="450.0238" font-size="11" font-family="Helvetica,Arial,sans-serif" fill="#000000" text-anchor="middle">local_source_01</text></g>
<g class="component" data-node-id="local_source_02"><svg class="component-graphic" x="663.16" y="593.0063" width="40" height="19" viewBox="0 0 40 19" preserveAspectRatio="none" style="display:block;overflow:visible;" overflow="visible"><path d="M 0 14 Q 5 9 10 14 T 20 14 T 30 14 T 40 14" fill="none" stroke="#000000" stroke-width="2" stroke-linecap="round" stroke-linejoin="round" /></svg><text x="685.16" y="627.0263" font-size="11" font-family="Helvetica,Arial,sans-serif" fill="#000000" text-anchor="middle">local_source_02</text></g>
<g class="component" data-node-id="local_source_03"><svg class="component-graphic" x="663.16" y="770.0088" width="40" height="19" viewBox="0 0 40 19" preserveAspectRatio="none" style="display:block;overflow:visible;" overflow="visible"><path d="M 0 14 Q 5 9 10 14 T 20 14 T 30 14 T 40 14" fill="none" stroke="#000000" stroke-width="2" stroke-linecap="round" stroke-linejoin="round" /></svg><text x="685.16" y="804.0288" font-size="11" font-family="Helvetica,Arial,sans-serif" fill="#000000" text-anchor="middle">local_source_03</text></g>
<g class="component" data-node-id="local_source_04"><svg class="component-graphic" x="663.16" y="947.0113" width="40" height="19" viewBox="0 0 40 19" preserveAspectRatio="none" style="display:block;overflow:visible;" overflow="visible"><path d="M 0 14 Q 5 9 10 14 T 20 14 T 30 14 T 40 14" fill="none" stroke="#000000" stroke-width="2" stroke-linecap="round" stroke-linejoin="round" /></svg><text x="685.16" y="981.0313" font-size="11" font-family="Helvetica,Arial,sans-serif" fill="#000000" text-anchor="middle">local_source_04</text></g>
<g class="component" data-node-id="local_source_05"><svg class="component-graphic" x="663.16" y="1124.0138" width="40" height="19" viewBox="0 0 40 19" preserveAspectRatio="none" style="display:block;overflow:visible;" overflow="visible"><path d="M 0 14 Q 5 9 10 14 T 20 14 T 30 14 T 40 14" fill="none" stroke="#000000" stroke-width="2" stroke-linecap="round" stroke-linejoin="round" /></svg><text x="685.16" y="1158.0338" font-size="11" font-family="Helvetica,Arial,sans-serif" fill="#000000" text-anchor="middle">local_source_05</text></g>
<g class="component" data-node-id="local_source_06"><svg class="component-graphic" x="663.16" y="1301.0163" width="40" height="19" viewBox="0 0 40 19" preserveAspectRatio="none" style="display:block;overflow:visible;" overflow="visible"><path d="M 0 14 Q 5 9 10 14 T 20 14 T 30 14 T 40 14" fill="none" stroke="#000000" stroke-width="2" stroke-linecap="round" stroke-linejoin="round" /></svg><text x="685.16" y="1335.0363" font-size="11" font-family="Helvetica,Arial,sans-serif" fill="#000000" text-anchor="middle">local_source_06</text></g>
<g class="component" data-node-id="local_source_07"><svg class="component-graphic" x="663.16" y="1478.0188" width="40" height="19" viewBox="0 0 40 19" preserveAspectRatio="none" style="display:block;overflow:visible;" overflow="visible"><path d="M 0 14 Q 5 9 10 14 T 20 14 T 30 14 T 40 14" fill="none" stroke="#000000" stroke-width="2" stroke-linecap="round" stroke-linejoin="round" /></svg><text x="685.16" y="1512.0388" font-size="11" font-family="Helvetica,Arial,sans-serif" fill="#000000" text-anchor="middle">local_source_07</text></g>
<g class="component" data-node-id="mux_00"><svg class="component-graphic" x="785.18" y="167.0025" width="40" height="110" viewBox="0 0 40 110" preserveAspectRatio="none" style="display:block;overflow:visible;" overflow="visible"><polygon points="8,6 8,110 32,100 32,16" fill="none" stroke="#000000" stroke-width="2" /></svg><text x="799.18" y="200.5225" font-size="11" font-family="Helvetica,Arial,sans-serif" fill="#000000" text-anchor="middle">0</text><text x="799.18" y="256.5225" font-size="11" font-family="Helvetica,Arial,sans-serif" fill="#000000" text-anchor="middle">1</text><text x="807.18" y="297.0225" font-size="11" font-family="Helvetica,Arial,sans-serif" fill="#000000" text-anchor="middle">mux_00</text></g>
<g class="component" data-node-id="mux_01"><svg class="component-graphic" x="785.18" y="344.005" width="40" height="110" viewBox="0 0 40 110" preserveAspectRatio="none" style="display:block;overflow:visible;" overflow="visible"><polygon points="8,6 8,110 32,100 32,16" fill="none" stroke="#000000" stroke-width="2" /></svg><text x="799.18" y="377.525" font-size="11" font-family="Helvetica,Arial,sans-serif" fill="#000000" text-anchor="middle">0</text><text x="799.18" y="433.525" font-size="11" font-family="Helvetica,Arial,sans-serif" fill="#000000" text-anchor="middle">1</text><text x="807.18" y="474.025" font-size="11" font-family="Helvetica,Arial,sans-serif" fill="#000000" text-anchor="middle">mux_01</text></g>
<g class="component" data-node-id="mux_02"><svg class="component-graphic" x="785.18" y="521.0075" width="40" height="110" viewBox="0 0 40 110" preserveAspectRatio="none" style="display:block;overflow:visible;" overflow="visible"><polygon points="8,6 8,110 32,100 32,16" fill="none" stroke="#000000" stroke-width="2" /></svg><text x="799.18" y="554.5275" font-size="11" font-family="Helvetica,Arial,sans-serif" fill="#000000" text-anchor="middle">0</text><text x="799.18" y="610.5275" font-size="11" font-family="Helvetica,Arial,sans-serif" fill="#000000" text-anchor="middle">1</text><text x="807.18" y="651.0275" font-size="11" font-family="Helvetica,Arial,sans-serif" fill="#000000" text-anchor="middle">mux_02</text></g>
<g class="component" data-node-id="mux_03"><svg class="component-graphic" x="785.18" y="698.01" width="40" height="110" viewBox="0 0 40 110" preserveAspectRatio="none" style="display:block;overflow:visible;" overflow="visible"><polygon points="8,6 8,110 32,100 32,16" fill="none" stroke="#000000" stroke-width="2" /></svg><text x="799.18" y="731.53" font-size="11" font-family="Helvetica,Arial,sans-serif" fill="#000000" text-anchor="middle">0</text><text x="799.18" y="787.53" font-size="11" font-family="Helvetica,Arial,sans-serif" fill="#000000" text-anchor="middle">1</text><text x="807.18" y="828.03" font-size="11" font-family="Helvetica,Arial,sans-serif" fill="#000000" text-anchor="middle">mux_03</text></g>
<g class="component" data-node-id="mux_04"><svg class="component-graphic" x="785.18" y="875.0125" width="40" height="110" viewBox="0 0 40 110" preserveAspectRatio="none" style="display:block;overflow:visible;" overflow="visible"><polygon points="8,6 8,110 32,100 32,16" fill="none" stroke="#000000" stroke-width="2" /></svg><text x="799.18" y="908.5325" font-size="11" font-family="Helvetica,Arial,sans-serif" fill="#000000" text-anchor="middle">0</text><text x="799.18" y="964.5325" font-size="11" font-family="Helvetica,Arial,sans-serif" fill="#000000" text-anchor="middle">1</text><text x="807.18" y="1005.0325" font-size="11" font-family="Helvetica,Arial,sans-serif" fill="#000000" text-anchor="middle">mux_04</text></g>
<g class="component" data-node-id="mux_05"><svg class="component-graphic" x="785.18" y="1052.015" width="40" height="110" viewBox="0 0 40 110" preserveAspectRatio="none" style="display:block;overflow:visible;" overflow="visible"><polygon points="8,6 8,110 32,100 32,16" fill="none" stroke="#000000" stroke-width="2" /></svg><text x="799.18" y="1085.535" font-size="11" font-family="Helvetica,Arial,sans-serif" fill="#000000" text-anchor="middle">0</text><text x="799.18" y="1141.535" font-size="11" font-family="Helvetica,Arial,sans-serif" fill="#000000" text-anchor="middle">1</text><text x="807.18" y="1182.035" font-size="11" font-family="Helvetica,Arial,sans-serif" fill="#000000" text-anchor="middle">mux_05</text></g>
<g class="component" data-node-id="mux_06"><svg class="component-graphic" x="785.18" y="1229.0175" width="40" height="110" viewBox="0 0 40 110" preserveAspectRatio="none" style="display:block;overflow:visible;" overflow="visible"><polygon points="8,6 8,110 32,100 32,16" fill="none" stroke="#000000" stroke-width="2" /></svg><text x="799.18" y="1262.5375" font-size="11" font-family="Helvetica,Arial,sans-serif" fill="#000000" text-anchor="middle">0</text><text x="799.18" y="1318.5375" font-size="11" font-family="Helvetica,Arial,sans-serif" fill="#000000" text-anchor="middle">1</text><text x="807.18" y="1359.0375" font-size="11" font-family="Helvetica,Arial,sans-serif" fill="#000000" text-anchor="middle">mux_06</text></g>
<g class="component" data-node-id="mux_07"><svg class="component-graphic" x="785.18" y="1406.02" width="40" height="110" viewBox="0 0 40 110" preserveAspectRatio="none" style="display:block;overflow:visible;" overflow="visible"><polygon points="8,6 8,110 32,100 32,16" fill="none" stroke="#000000" stroke-width="2" /></svg><text x="799.18" y="1439.54" font-size="11" font-family="Helvetica,Arial,sans-serif" fill="#000000" text-anchor="middle">0</text><text x="799.18" y="1495.54" font-size="11" font-family="Helvetica,Arial,sans-serif" fill="#000000" text-anchor="middle">1</text><text x="807.18" y="1536.04" font-size="11" font-family="Helvetica,Arial,sans-serif" fill="#000000" text-anchor="middle">mux_07</text></g>
<g class="frequency-table">
<g class="frequency-heading" data-frequency-field="func_freq" data-heading-render="outline" aria-label="工作频率" transform="translate(1056.66 197.0025) scale(0.012 -0.012)" fill="#20252b">
<title>工作频率</title>
<path transform="translate(0 0)" d="M52 72V-3H951V72H539V650H900V727H104V650H456V72Z"/>
<path transform="translate(1000 0)" d="M526 828C476 681 395 536 305 442C322 430 351 404 363 391C414 447 463 520 506 601H575V-79H651V164H952V235H651V387H939V456H651V601H962V673H542C563 717 582 763 598 809ZM285 836C229 684 135 534 36 437C50 420 72 379 80 362C114 397 147 437 179 481V-78H254V599C293 667 329 741 357 814Z"/>
<path transform="translate(2000 0)" d="M701 501C699 151 688 35 446-30C459-43 477-67 483-83C743-9 762 129 764 501ZM728 84C795 34 881-38 923-82L968-34C925 9 837 78 770 126ZM428 386C376 178 261 42 49-25C64-40 81-65 88-83C315-3 438 144 493 371ZM133 397C113 323 80 248 37 197C54 189 81 172 93 162C135 217 174 301 196 383ZM544 609V137H608V550H854V139H922V609H742L782 714H950V781H518V714H709C699 680 686 640 672 609ZM114 753V529H39V461H248V158H316V461H502V529H334V652H479V716H334V841H266V529H176V753Z"/>
<path transform="translate(3000 0)" d="M829 643C794 603 732 548 687 515L742 478C788 510 846 558 892 605ZM56 337 94 277C160 309 242 353 319 394L304 451C213 407 118 363 56 337ZM85 599C139 565 205 515 236 481L290 527C256 561 190 609 136 640ZM677 408C746 366 832 306 874 266L930 311C886 351 797 410 730 448ZM51 202V132H460V-80H540V132H950V202H540V284H460V202ZM435 828C450 805 468 776 481 750H71V681H438C408 633 374 592 361 579C346 561 331 550 317 547C324 530 334 498 338 483C353 489 375 494 490 503C442 454 399 415 379 399C345 371 319 352 297 349C305 330 315 297 318 284C339 293 374 298 636 324C648 304 658 286 664 270L724 297C703 343 652 415 607 466L551 443C568 424 585 401 600 379L423 364C511 434 599 522 679 615L618 650C597 622 573 594 550 567L421 560C454 595 487 637 516 681H941V750H569C555 779 531 818 508 847Z"/>
</g>
<text class="frequency-heading" data-frequency-field="scan_freq" x="1159.66" y="197.0025" text-anchor="middle" font-family="Noto Sans CJK SC,Microsoft YaHei,WenQuanYi Micro Hei,sans-serif" font-size="12" fill="#20252b">SCAN</text>
<text class="frequency-heading" data-frequency-field="bist_freq" x="1237.66" y="197.0025" text-anchor="middle" font-family="Noto Sans CJK SC,Microsoft YaHei,WenQuanYi Micro Hei,sans-serif" font-size="12" fill="#20252b">BIST</text>
</g>
</svg>
