<svg xmlns="http://www.w3.org/2000/svg" width="120" height="90" viewBox="0 0 120 90">
<rect x="44" y="12" width="32" height="36" fill="none" stroke="#000000" stroke-width="2"/><path d="M 48 23 L 48 18 L 55 18 L 55 23 L 64 23" fill="none" stroke="#000000" stroke-width="1.2" stroke-linecap="square"/> <path d="M 53 33 L 53 28 L 60 28 L 60 33 L 69 33" fill="none" stroke="#000000" stroke-width="1.2" stroke-linecap="square"/> <path d="M 58 43 L 58 38 L 65 38 L 65 43 L 74 43" fill="none" stroke="#000000" stroke-width="1.2" stroke-linecap="square"/>


  <line x1="0" y1="30" x2="44" y2="30" stroke="#c00" stroke-width="1"/>
  <circle cx="44" cy="30" r="2.5" fill="#c00"/>
  <line x1="76" y1="23" x2="120" y2="23" stroke="#090" stroke-width="1"/>
  <circle cx="76" cy="23" r="2.5" fill="#090"/>
  <line x1="76" y1="33" x2="120" y2="33" stroke="#090" stroke-width="1"/>
  <circle cx="76" cy="33" r="2.5" fill="#090"/>
  <line x1="76" y1="43" x2="120" y2="43" stroke="#090" stroke-width="1"/>
  <circle cx="76" cy="43" r="2.5" fill="#090"/>
  <text x="60" y="66" font-size="11" fill="#000000" text-anchor="middle" dominant-baseline="middle">clk_phase_sel</text>
</svg>
