<svg xmlns="http://www.w3.org/2000/svg" width="40" height="78" viewBox="0 0 40 78">
<rect x="4" y="12" width="32" height="36" fill="none" stroke="#000000" stroke-width="2"/><path d="M 8 23 L 8 18 L 15 18 L 15 23 L 24 23" fill="none" stroke="#000000" stroke-width="1.2" stroke-linecap="square"/> <path d="M 13 33 L 13 28 L 20 28 L 20 33 L 29 33" fill="none" stroke="#000000" stroke-width="1.2" stroke-linecap="square"/> <path d="M 18 43 L 18 38 L 25 38 L 25 43 L 34 43" fill="none" stroke="#000000" stroke-width="1.2" stroke-linecap="square"/>


  <line x1="0" y1="30" x2="4" y2="30" stroke="#c00" stroke-width="1"/>
  <circle cx="4" cy="30" r="2.5" fill="#c00"/>
  <line x1="36" y1="23" x2="40" y2="23" stroke="#090" stroke-width="1"/>
  <circle cx="36" cy="23" r="2.5" fill="#090"/>
  <line x1="36" y1="33" x2="40" y2="33" stroke="#090" stroke-width="1"/>
  <circle cx="36" cy="33" r="2.5" fill="#090"/>
  <line x1="36" y1="43" x2="40" y2="43" stroke="#090" stroke-width="1"/>
  <circle cx="36" cy="43" r="2.5" fill="#090"/>
  <text x="20" y="62" font-size="11" fill="#000000" text-anchor="middle" dominant-baseline="middle">clk_phase_sel</text>
</svg>
