<svg xmlns="http://www.w3.org/2000/svg" width="120" height="142" viewBox="0 0 120 142">
  <polygon points="48,6 48,106 72,96 72,16" fill="none" stroke="#000000" stroke-width="2"/>
  <line x1="0" y1="23" x2="48" y2="23" stroke="#c00" stroke-width="1"/>
  <circle cx="48" cy="23" r="2.5" fill="#c00"/>
  <line x1="0" y1="39" x2="48" y2="39" stroke="#c00" stroke-width="1"/>
  <circle cx="48" cy="39" r="2.5" fill="#c00"/>
  <line x1="0" y1="56" x2="48" y2="56" stroke="#c00" stroke-width="1"/>
  <circle cx="48" cy="56" r="2.5" fill="#c00"/>
  <line x1="0" y1="73" x2="48" y2="73" stroke="#c00" stroke-width="1"/>
  <circle cx="48" cy="73" r="2.5" fill="#c00"/>
  <line x1="0" y1="89" x2="48" y2="89" stroke="#c00" stroke-width="1"/>
  <circle cx="48" cy="89" r="2.5" fill="#c00"/>
  <line x1="72" y1="56" x2="120" y2="56" stroke="#090" stroke-width="1"/>
  <circle cx="72" cy="56" r="2.5" fill="#090"/>
  <text x="54" y="23" font-size="11" fill="#000000">0</text>
  <text x="54" y="39" font-size="11" fill="#000000">1</text>
  <text x="54" y="56" font-size="11" fill="#000000">2</text>
  <text x="54" y="73" font-size="11" fill="#000000">3</text>
  <text x="54" y="89" font-size="11" fill="#000000">4</text>
  <text x="60" y="126" font-size="11" fill="#000000"
    text-anchor="middle" dominant-baseline="middle">mux5</text>
</svg>
