<svg xmlns="http://www.w3.org/2000/svg" width="40" height="130" viewBox="0 0 40 130">
  <polygon points="8,6 8,106 32,96 32,16" fill="none" stroke="#000000" stroke-width="2"/>
  <line x1="0" y1="24" x2="8" y2="24" stroke="#c00" stroke-width="1"/>
  <circle cx="8" cy="24" r="2.5" fill="#c00"/>
  <line x1="0" y1="40" x2="8" y2="40" stroke="#c00" stroke-width="1"/>
  <circle cx="8" cy="40" r="2.5" fill="#c00"/>
  <line x1="0" y1="56" x2="8" y2="56" stroke="#c00" stroke-width="1"/>
  <circle cx="8" cy="56" r="2.5" fill="#c00"/>
  <line x1="0" y1="72" x2="8" y2="72" stroke="#c00" stroke-width="1"/>
  <circle cx="8" cy="72" r="2.5" fill="#c00"/>
  <line x1="0" y1="88" x2="8" y2="88" stroke="#c00" stroke-width="1"/>
  <circle cx="8" cy="88" r="2.5" fill="#c00"/>
  <line x1="32" y1="56" x2="40" y2="56" stroke="#090" stroke-width="1"/>
  <circle cx="32" cy="56" r="2.5" fill="#090"/>
  <text x="14" y="24" font-size="11" fill="#000000">0</text>
  <text x="14" y="40" font-size="11" fill="#000000">1</text>
  <text x="14" y="56" font-size="11" fill="#000000">2</text>
  <text x="14" y="72" font-size="11" fill="#000000">3</text>
  <text x="14" y="88" font-size="11" fill="#000000">4</text>
  <text x="20" y="118" font-size="11" fill="#000000"
    text-anchor="middle" dominant-baseline="middle">mux5</text>
</svg>
