<svg xmlns="http://www.w3.org/2000/svg" width="40" height="349" viewBox="0 0 40 349">
  <polygon points="8,6 8,334 32,324 32,16" fill="none" stroke="#000000" stroke-width="2"/>
  <line x1="0" y1="30" x2="8" y2="30" stroke="#c00" stroke-width="1"/>
  <circle cx="8" cy="30" r="2.5" fill="#c00"/>
  <line x1="0" y1="86" x2="8" y2="86" stroke="#c00" stroke-width="1"/>
  <circle cx="8" cy="86" r="2.5" fill="#c00"/>
  <line x1="0" y1="142" x2="8" y2="142" stroke="#c00" stroke-width="1"/>
  <circle cx="8" cy="142" r="2.5" fill="#c00"/>
  <line x1="0" y1="198" x2="8" y2="198" stroke="#c00" stroke-width="1"/>
  <circle cx="8" cy="198" r="2.5" fill="#c00"/>
  <line x1="0" y1="254" x2="8" y2="254" stroke="#c00" stroke-width="1"/>
  <circle cx="8" cy="254" r="2.5" fill="#c00"/>
  <line x1="0" y1="310" x2="8" y2="310" stroke="#c00" stroke-width="1"/>
  <circle cx="8" cy="310" r="2.5" fill="#c00"/>
  <line x1="32" y1="170" x2="40" y2="170" stroke="#090" stroke-width="1"/>
  <circle cx="32" cy="170" r="2.5" fill="#090"/>
  <text x="14" y="30" font-size="11" fill="#000000">0</text>
  <text x="14" y="86" font-size="11" fill="#000000">1</text>
  <text x="14" y="142" font-size="11" fill="#000000">2</text>
  <text x="14" y="198" font-size="11" fill="#000000">3</text>
  <text x="14" y="254" font-size="11" fill="#000000">4</text>
  <text x="14" y="310" font-size="11" fill="#000000">5</text>
  <text x="20" y="346" font-size="11" fill="#000000"
    text-anchor="middle" dominant-baseline="middle">mux6</text>
</svg>
