<svg xmlns="http://www.w3.org/2000/svg" width="40" height="150" viewBox="0 0 40 150">
  <polygon points="8,6 8,126 32,116 32,16" fill="none" stroke="#000000" stroke-width="2"/>
  <line x1="0" y1="23" x2="8" y2="23" stroke="#c00" stroke-width="1"/>
  <circle cx="8" cy="23" r="2.5" fill="#c00"/>
  <line x1="0" y1="40" x2="8" y2="40" stroke="#c00" stroke-width="1"/>
  <circle cx="8" cy="40" r="2.5" fill="#c00"/>
  <line x1="0" y1="57" x2="8" y2="57" stroke="#c00" stroke-width="1"/>
  <circle cx="8" cy="57" r="2.5" fill="#c00"/>
  <line x1="0" y1="75" x2="8" y2="75" stroke="#c00" stroke-width="1"/>
  <circle cx="8" cy="75" r="2.5" fill="#c00"/>
  <line x1="0" y1="92" x2="8" y2="92" stroke="#c00" stroke-width="1"/>
  <circle cx="8" cy="92" r="2.5" fill="#c00"/>
  <line x1="0" y1="109" x2="8" y2="109" stroke="#c00" stroke-width="1"/>
  <circle cx="8" cy="109" r="2.5" fill="#c00"/>
  <line x1="32" y1="66" x2="40" y2="66" stroke="#090" stroke-width="1"/>
  <circle cx="32" cy="66" r="2.5" fill="#090"/>
  <text x="14" y="23" font-size="11" fill="#000000">0</text>
  <text x="14" y="40" font-size="11" fill="#000000">1</text>
  <text x="14" y="57" font-size="11" fill="#000000">2</text>
  <text x="14" y="75" font-size="11" fill="#000000">3</text>
  <text x="14" y="92" font-size="11" fill="#000000">4</text>
  <text x="14" y="109" font-size="11" fill="#000000">5</text>
  <text x="20" y="138" font-size="11" fill="#000000"
    text-anchor="middle" dominant-baseline="middle">mux6</text>
</svg>
