<svg xmlns="http://www.w3.org/2000/svg" width="40" height="150" viewBox="0 0 40 150">
  <polygon points="8,6 8,126 32,116 32,16" fill="none" stroke="#000000" stroke-width="2"/>
  <line x1="0" y1="26" x2="8" y2="26" stroke="#c00" stroke-width="1"/>
  <circle cx="8" cy="26" r="2.5" fill="#c00"/>
  <line x1="0" y1="42" x2="8" y2="42" stroke="#c00" stroke-width="1"/>
  <circle cx="8" cy="42" r="2.5" fill="#c00"/>
  <line x1="0" y1="58" x2="8" y2="58" stroke="#c00" stroke-width="1"/>
  <circle cx="8" cy="58" r="2.5" fill="#c00"/>
  <line x1="0" y1="74" x2="8" y2="74" stroke="#c00" stroke-width="1"/>
  <circle cx="8" cy="74" r="2.5" fill="#c00"/>
  <line x1="0" y1="90" x2="8" y2="90" stroke="#c00" stroke-width="1"/>
  <circle cx="8" cy="90" r="2.5" fill="#c00"/>
  <line x1="0" y1="106" x2="8" y2="106" stroke="#c00" stroke-width="1"/>
  <circle cx="8" cy="106" r="2.5" fill="#c00"/>
  <line x1="32" y1="66" x2="40" y2="66" stroke="#090" stroke-width="1"/>
  <circle cx="32" cy="66" r="2.5" fill="#090"/>
  <text x="14" y="26" font-size="11" fill="#000000">0</text>
  <text x="14" y="42" font-size="11" fill="#000000">1</text>
  <text x="14" y="58" font-size="11" fill="#000000">2</text>
  <text x="14" y="74" font-size="11" fill="#000000">3</text>
  <text x="14" y="90" font-size="11" fill="#000000">4</text>
  <text x="14" y="106" font-size="11" fill="#000000">5</text>
  <text x="20" y="138" font-size="11" fill="#000000"
    text-anchor="middle" dominant-baseline="middle">mux6</text>
</svg>
