<svg xmlns="http://www.w3.org/2000/svg" width="80" height="162" viewBox="0 0 80 162">
  <polygon points="28,6 28,126 52,116 52,16" fill="none" stroke="#000000" stroke-width="2"/>
  <line x1="0" y1="23" x2="28" y2="23" stroke="#c00" stroke-width="1"/>
  <circle cx="28" cy="23" r="2.5" fill="#c00"/>
  <line x1="0" y1="40" x2="28" y2="40" stroke="#c00" stroke-width="1"/>
  <circle cx="28" cy="40" r="2.5" fill="#c00"/>
  <line x1="0" y1="57" x2="28" y2="57" stroke="#c00" stroke-width="1"/>
  <circle cx="28" cy="57" r="2.5" fill="#c00"/>
  <line x1="0" y1="75" x2="28" y2="75" stroke="#c00" stroke-width="1"/>
  <circle cx="28" cy="75" r="2.5" fill="#c00"/>
  <line x1="0" y1="92" x2="28" y2="92" stroke="#c00" stroke-width="1"/>
  <circle cx="28" cy="92" r="2.5" fill="#c00"/>
  <line x1="0" y1="109" x2="28" y2="109" stroke="#c00" stroke-width="1"/>
  <circle cx="28" cy="109" r="2.5" fill="#c00"/>
  <line x1="52" y1="66" x2="80" y2="66" stroke="#090" stroke-width="1"/>
  <circle cx="52" cy="66" r="2.5" fill="#090"/>
  <text x="34" y="23" font-size="11" fill="#000000">0</text>
  <text x="34" y="40" font-size="11" fill="#000000">1</text>
  <text x="34" y="57" font-size="11" fill="#000000">2</text>
  <text x="34" y="75" font-size="11" fill="#000000">3</text>
  <text x="34" y="92" font-size="11" fill="#000000">4</text>
  <text x="34" y="109" font-size="11" fill="#000000">5</text>
  <text x="40" y="146" font-size="11" fill="#000000"
    text-anchor="middle" dominant-baseline="middle">mux6</text>
</svg>
