<?xml version="1.0" encoding="UTF-8"?>
<svg xmlns="http://www.w3.org/2000/svg" viewBox="44.83 15 747.37 1909.0432" width="747.37" height="1909.0432">
<style>.edge-gap{fill:none;stroke:#fff;stroke-width:6;stroke-linejoin:round}.edge{fill:none;stroke:#20252b;stroke-width:1.6;stroke-linejoin:round;stroke-linecap:square}</style>
<rect x="44.83" y="15" width="747.37" height="1909.0432" fill="#ffffff"/>
<text x="52.83" y="33" font-family="Arial,sans-serif" font-size="12" fill="#68707a">pad-r08-s00</text>
<polyline class="edge" points="253.62,146.0039 348,146.0039"/>
<polyline class="edge" points="123.83,1544.0363 229.62,1544.0363"/>
<polyline class="edge" points="129.83,1164.0161 197.66,1164.0161 197.66,1600.0377 229.62,1600.0377"/>
<polyline class="edge" points="253.62,845.0147 348,845.0147"/>
<polyline class="edge" points="129.83,901.0147 177.66,901.0147 177.66,958.0216 295.58,958.0216 295.58,901.0147 348,901.0147"/>
<polyline class="edge" points="372,1339.0255 455.2,1339.0255"/>
<polyline class="edge" points="253.62,379.0039 348,379.0039"/>
<polyline class="edge" points="123.83,556.0025 187.66,556.0025 187.66,492.0108 285.58,492.0108 285.58,435.0039 348,435.0039"/>
<polyline class="edge" points="253.62,612.0039 348,612.0039"/>
<polyline class="edge" points="129.83,1164.0161 197.66,1164.0161 197.66,725.0108 285.58,725.0108 285.58,668.0039 348,668.0039"/>
<polyline class="edge" points="129.83,789.0133 229.62,789.0133"/>
<polyline class="edge" points="123.83,556.0025 187.66,556.0025 187.66,259.0108 285.58,259.0108 285.58,202.0039 348,202.0039"/>
<polyline class="edge" points="129.83,845.0147 229.62,845.0147"/>
<polyline class="edge" points="129.83,1164.0161 197.66,1164.0161 197.66,901.0161 229.62,901.0161"/>
<polyline class="edge" points="123.83,556.0025 187.66,556.0025 187.66,1721.0349 229.62,1721.0349"/>
<polyline class="edge" points="123.83,1777.0363 229.62,1777.0363"/>
<polyline class="edge" points="123.83,1833.0377 229.62,1833.0377"/>
<polyline class="edge" points="129.83,1255.0241 229.62,1255.0241"/>
<polyline class="edge" points="123.83,1311.0255 229.62,1311.0255"/>
<polyline class="edge" points="129.83,1164.0161 197.66,1164.0161 197.66,1367.0269 229.62,1367.0269"/>
<polyline class="edge" points="372,174.0039 455.2,174.0039"/>
<polyline class="edge" points="253.62,1777.0363 348,1777.0363"/>
<polyline class="edge" points="372,407.0039 455.2,407.0039"/>
<polyline class="edge" points="129.83,1164.0161 197.66,1164.0161 197.66,1191.0216 285.58,1191.0216 285.58,1833.0363 348,1833.0363"/>
<polyline class="edge" points="123.83,556.0025 229.62,556.0025"/>
<polyline class="edge" points="123.83,612.0039 229.62,612.0039"/>
<polyline class="edge" points="129.83,668.0053 229.62,668.0053"/>
<polyline class="edge" points="129.83,323.0025 229.62,323.0025"/>
<polyline class="edge" points="129.83,901.0147 177.66,901.0147 177.66,379.0039 229.62,379.0039"/>
<polyline class="edge" points="129.83,435.0053 229.62,435.0053"/>
<polyline class="edge" points="372,873.0147 455.2,873.0147"/>
<polyline class="edge" points="253.62,1078.0147 348,1078.0147"/>
<polyline class="edge" points="129.83,1164.0161 197.66,1164.0161 197.66,1191.0216 285.58,1191.0216 285.58,1134.0147 348,1134.0147"/>
<polyline class="edge" points="372,640.0039 455.2,640.0039"/>
<polyline class="edge" points="129.83,90.0025 229.62,90.0025"/>
<polyline class="edge" points="129.83,901.0147 177.66,901.0147 177.66,146.0039 229.62,146.0039"/>
<polyline class="edge" points="129.83,202.0053 229.62,202.0053"/>
<polyline class="edge" points="253.62,1311.0255 348,1311.0255"/>
<polyline class="edge" points="129.83,901.0147 177.66,901.0147 177.66,974.0216 295.58,974.0216 295.58,1367.0255 348,1367.0255"/>
<polyline class="edge" points="372,1805.0363 455.2,1805.0363"/>
<polyline class="edge" points="372,1572.0363 455.2,1572.0363"/>
<polyline class="edge" points="253.62,1544.0363 348,1544.0363"/>
<polyline class="edge" points="129.83,901.0147 177.66,901.0147 177.66,1207.0324 295.58,1207.0324 295.58,1600.0363 348,1600.0363"/>
<polyline class="edge" points="123.83,556.0025 187.66,556.0025 187.66,1022.0133 229.62,1022.0133"/>
<polyline class="edge" points="123.83,1078.0147 229.62,1078.0147"/>
<polyline class="edge" points="129.83,1134.0161 229.62,1134.0161"/>
<polyline class="edge" points="372,1106.0147 455.2,1106.0147"/>
<polyline class="edge" points="129.83,1488.0349 229.62,1488.0349"/>
<circle cx="177.66" cy="379.0039" r="3" fill="#000000"/>
<circle cx="177.66" cy="901.0147" r="3" fill="#000000"/>
<circle cx="177.66" cy="958.0216" r="3" fill="#000000"/>
<circle cx="177.66" cy="974.0216" r="3" fill="#000000"/>
<circle cx="187.66" cy="492.0108" r="3" fill="#000000"/>
<circle cx="187.66" cy="556.0025" r="3" fill="#000000"/>
<circle cx="187.66" cy="1022.0133" r="3" fill="#000000"/>
<circle cx="197.66" cy="901.0161" r="3" fill="#000000"/>
<circle cx="197.66" cy="1164.0161" r="3" fill="#000000"/>
<circle cx="197.66" cy="1191.0216" r="3" fill="#000000"/>
<circle cx="197.66" cy="1367.0269" r="3" fill="#000000"/>
<circle cx="285.58" cy="1191.0216" r="3" fill="#000000"/>
<g class="component" data-node-id="clock_00"><svg class="component-graphic" x="455.2" y="1070.0138" width="40" height="36" viewBox="0 0 40 36" preserveAspectRatio="none" style="display:block;overflow:visible;" overflow="visible"><path d="M 0 36 L 7 36 M 43 36 L 43 24 L 39 24 L 39 36 L 34 36 L 34 24 L 30 24 L 30 36 L 25 36 L 25 24 L 21 24 L 21 36 L 16 36 L 16 24 L 12 24 L 12 36 L 7 36" fill="none" stroke="#000000" stroke-width="1.5" stroke-linecap="square" stroke-linejoin="miter" /></svg><text x="482.2" y="1126.0338" font-size="11" font-family="Helvetica,Arial,sans-serif" fill="#000000" text-anchor="middle">clock_00</text></g>
<g class="component" data-node-id="clock_01"><svg class="component-graphic" x="455.2" y="1536.0354" width="40" height="36" viewBox="0 0 40 36" preserveAspectRatio="none" style="display:block;overflow:visible;" overflow="visible"><path d="M 0 36 L 7 36 M 43 36 L 43 24 L 39 24 L 39 36 L 34 36 L 34 24 L 30 24 L 30 36 L 25 36 L 25 24 L 21 24 L 21 36 L 16 36 L 16 24 L 12 24 L 12 36 L 7 36" fill="none" stroke="#000000" stroke-width="1.5" stroke-linecap="square" stroke-linejoin="miter" /></svg><text x="482.2" y="1592.0554" font-size="11" font-family="Helvetica,Arial,sans-serif" fill="#000000" text-anchor="middle">clock_01</text></g>
<g class="component" data-node-id="clock_02"><svg class="component-graphic" x="455.2" y="138.003" width="40" height="36" viewBox="0 0 40 36" preserveAspectRatio="none" style="display:block;overflow:visible;" overflow="visible"><path d="M 0 36 L 7 36 M 43 36 L 43 24 L 39 24 L 39 36 L 34 36 L 34 24 L 30 24 L 30 36 L 25 36 L 25 24 L 21 24 L 21 36 L 16 36 L 16 24 L 12 24 L 12 36 L 7 36" fill="none" stroke="#000000" stroke-width="1.5" stroke-linecap="square" stroke-linejoin="miter" /></svg><text x="482.2" y="194.023" font-size="11" font-family="Helvetica,Arial,sans-serif" fill="#000000" text-anchor="middle">clock_02</text></g>
<g class="component" data-node-id="clock_03"><svg class="component-graphic" x="455.2" y="604.003" width="40" height="36" viewBox="0 0 40 36" preserveAspectRatio="none" style="display:block;overflow:visible;" overflow="visible"><path d="M 0 36 L 7 36 M 43 36 L 43 24 L 39 24 L 39 36 L 34 36 L 34 24 L 30 24 L 30 36 L 25 36 L 25 24 L 21 24 L 21 36 L 16 36 L 16 24 L 12 24 L 12 36 L 7 36" fill="none" stroke="#000000" stroke-width="1.5" stroke-linecap="square" stroke-linejoin="miter" /></svg><text x="482.2" y="660.023" font-size="11" font-family="Helvetica,Arial,sans-serif" fill="#000000" text-anchor="middle">clock_03</text></g>
<g class="component" data-node-id="clock_04"><svg class="component-graphic" x="455.2" y="1303.0246" width="40" height="36" viewBox="0 0 40 36" preserveAspectRatio="none" style="display:block;overflow:visible;" overflow="visible"><path d="M 0 36 L 7 36 M 43 36 L 43 24 L 39 24 L 39 36 L 34 36 L 34 24 L 30 24 L 30 36 L 25 36 L 25 24 L 21 24 L 21 36 L 16 36 L 16 24 L 12 24 L 12 36 L 7 36" fill="none" stroke="#000000" stroke-width="1.5" stroke-linecap="square" stroke-linejoin="miter" /></svg><text x="482.2" y="1359.0446" font-size="11" font-family="Helvetica,Arial,sans-serif" fill="#000000" text-anchor="middle">clock_04</text></g>
<g class="component" data-node-id="clock_05"><svg class="component-graphic" x="455.2" y="371.003" width="40" height="36" viewBox="0 0 40 36" preserveAspectRatio="none" style="display:block;overflow:visible;" overflow="visible"><path d="M 0 36 L 7 36 M 43 36 L 43 24 L 39 24 L 39 36 L 34 36 L 34 24 L 30 24 L 30 36 L 25 36 L 25 24 L 21 24 L 21 36 L 16 36 L 16 24 L 12 24 L 12 36 L 7 36" fill="none" stroke="#000000" stroke-width="1.5" stroke-linecap="square" stroke-linejoin="miter" /></svg><text x="482.2" y="427.023" font-size="11" font-family="Helvetica,Arial,sans-serif" fill="#000000" text-anchor="middle">clock_05</text></g>
<g class="component" data-node-id="clock_06"><svg class="component-graphic" x="455.2" y="1769.0354" width="40" height="36" viewBox="0 0 40 36" preserveAspectRatio="none" style="display:block;overflow:visible;" overflow="visible"><path d="M 0 36 L 7 36 M 43 36 L 43 24 L 39 24 L 39 36 L 34 36 L 34 24 L 30 24 L 30 36 L 25 36 L 25 24 L 21 24 L 21 36 L 16 36 L 16 24 L 12 24 L 12 36 L 7 36" fill="none" stroke="#000000" stroke-width="1.5" stroke-linecap="square" stroke-linejoin="miter" /></svg><text x="482.2" y="1825.0554" font-size="11" font-family="Helvetica,Arial,sans-serif" fill="#000000" text-anchor="middle">clock_06</text></g>
<g class="component" data-node-id="clock_07"><svg class="component-graphic" x="455.2" y="837.0138" width="40" height="36" viewBox="0 0 40 36" preserveAspectRatio="none" style="display:block;overflow:visible;" overflow="visible"><path d="M 0 36 L 7 36 M 43 36 L 43 24 L 39 24 L 39 36 L 34 36 L 34 24 L 30 24 L 30 36 L 25 36 L 25 24 L 21 24 L 21 36 L 16 36 L 16 24 L 12 24 L 12 36 L 7 36" fill="none" stroke="#000000" stroke-width="1.5" stroke-linecap="square" stroke-linejoin="miter" /></svg><text x="482.2" y="893.0338" font-size="11" font-family="Helvetica,Arial,sans-serif" fill="#000000" text-anchor="middle">clock_07</text></g>
<g class="component" data-node-id="mux_after_00"><svg class="component-graphic" x="340" y="1048.0147" width="40" height="110" viewBox="0 0 40 110" preserveAspectRatio="none" style="display:block;overflow:visible;" overflow="visible"><polygon points="8,6 8,110 32,100 32,16" fill="none" stroke="#000000" stroke-width="2" /></svg><text x="354" y="1081.5347" font-size="11" font-family="Helvetica,Arial,sans-serif" fill="#000000" text-anchor="middle">0</text><text x="354" y="1137.5347" font-size="11" font-family="Helvetica,Arial,sans-serif" fill="#000000" text-anchor="middle">1</text><text x="362" y="1178.0347" font-size="11" font-family="Helvetica,Arial,sans-serif" fill="#000000" text-anchor="middle">mux_after_00</text></g>
<g class="component" data-node-id="mux_after_01"><svg class="component-graphic" x="340" y="1514.0363" width="40" height="110" viewBox="0 0 40 110" preserveAspectRatio="none" style="display:block;overflow:visible;" overflow="visible"><polygon points="8,6 8,110 32,100 32,16" fill="none" stroke="#000000" stroke-width="2" /></svg><text x="354" y="1547.5563" font-size="11" font-family="Helvetica,Arial,sans-serif" fill="#000000" text-anchor="middle">0</text><text x="354" y="1603.5563" font-size="11" font-family="Helvetica,Arial,sans-serif" fill="#000000" text-anchor="middle">1</text><text x="362" y="1644.0563" font-size="11" font-family="Helvetica,Arial,sans-serif" fill="#000000" text-anchor="middle">mux_after_01</text></g>
<g class="component" data-node-id="mux_after_02"><svg class="component-graphic" x="340" y="116.0039" width="40" height="110" viewBox="0 0 40 110" preserveAspectRatio="none" style="display:block;overflow:visible;" overflow="visible"><polygon points="8,6 8,110 32,100 32,16" fill="none" stroke="#000000" stroke-width="2" /></svg><text x="354" y="149.5239" font-size="11" font-family="Helvetica,Arial,sans-serif" fill="#000000" text-anchor="middle">0</text><text x="354" y="205.5239" font-size="11" font-family="Helvetica,Arial,sans-serif" fill="#000000" text-anchor="middle">1</text><text x="362" y="246.0239" font-size="11" font-family="Helvetica,Arial,sans-serif" fill="#000000" text-anchor="middle">mux_after_02</text></g>
<g class="component" data-node-id="mux_after_03"><svg class="component-graphic" x="340" y="582.0039" width="40" height="110" viewBox="0 0 40 110" preserveAspectRatio="none" style="display:block;overflow:visible;" overflow="visible"><polygon points="8,6 8,110 32,100 32,16" fill="none" stroke="#000000" stroke-width="2" /></svg><text x="354" y="615.5239" font-size="11" font-family="Helvetica,Arial,sans-serif" fill="#000000" text-anchor="middle">0</text><text x="354" y="671.5239" font-size="11" font-family="Helvetica,Arial,sans-serif" fill="#000000" text-anchor="middle">1</text><text x="362" y="712.0239" font-size="11" font-family="Helvetica,Arial,sans-serif" fill="#000000" text-anchor="middle">mux_after_03</text></g>
<g class="component" data-node-id="mux_after_04"><svg class="component-graphic" x="340" y="1281.0255" width="40" height="110" viewBox="0 0 40 110" preserveAspectRatio="none" style="display:block;overflow:visible;" overflow="visible"><polygon points="8,6 8,110 32,100 32,16" fill="none" stroke="#000000" stroke-width="2" /></svg><text x="354" y="1314.5455" font-size="11" font-family="Helvetica,Arial,sans-serif" fill="#000000" text-anchor="middle">0</text><text x="354" y="1370.5455" font-size="11" font-family="Helvetica,Arial,sans-serif" fill="#000000" text-anchor="middle">1</text><text x="362" y="1411.0455" font-size="11" font-family="Helvetica,Arial,sans-serif" fill="#000000" text-anchor="middle">mux_after_04</text></g>
<g class="component" data-node-id="mux_after_05"><svg class="component-graphic" x="340" y="349.0039" width="40" height="110" viewBox="0 0 40 110" preserveAspectRatio="none" style="display:block;overflow:visible;" overflow="visible"><polygon points="8,6 8,110 32,100 32,16" fill="none" stroke="#000000" stroke-width="2" /></svg><text x="354" y="382.5239" font-size="11" font-family="Helvetica,Arial,sans-serif" fill="#000000" text-anchor="middle">0</text><text x="354" y="438.5239" font-size="11" font-family="Helvetica,Arial,sans-serif" fill="#000000" text-anchor="middle">1</text><text x="362" y="479.0239" font-size="11" font-family="Helvetica,Arial,sans-serif" fill="#000000" text-anchor="middle">mux_after_05</text></g>
<g class="component" data-node-id="mux_after_06"><svg class="component-graphic" x="340" y="1747.0363" width="40" height="110" viewBox="0 0 40 110" preserveAspectRatio="none" style="display:block;overflow:visible;" overflow="visible"><polygon points="8,6 8,110 32,100 32,16" fill="none" stroke="#000000" stroke-width="2" /></svg><text x="354" y="1780.5563" font-size="11" font-family="Helvetica,Arial,sans-serif" fill="#000000" text-anchor="middle">0</text><text x="354" y="1836.5563" font-size="11" font-family="Helvetica,Arial,sans-serif" fill="#000000" text-anchor="middle">1</text><text x="362" y="1877.0563" font-size="11" font-family="Helvetica,Arial,sans-serif" fill="#000000" text-anchor="middle">mux_after_06</text></g>
<g class="component" data-node-id="mux_after_07"><svg class="component-graphic" x="340" y="815.0147" width="40" height="110" viewBox="0 0 40 110" preserveAspectRatio="none" style="display:block;overflow:visible;" overflow="visible"><polygon points="8,6 8,110 32,100 32,16" fill="none" stroke="#000000" stroke-width="2" /></svg><text x="354" y="848.5347" font-size="11" font-family="Helvetica,Arial,sans-serif" fill="#000000" text-anchor="middle">0</text><text x="354" y="904.5347" font-size="11" font-family="Helvetica,Arial,sans-serif" fill="#000000" text-anchor="middle">1</text><text x="362" y="945.0347" font-size="11" font-family="Helvetica,Arial,sans-serif" fill="#000000" text-anchor="middle">mux_after_07</text></g>
<g class="component" data-node-id="pad_00"><svg class="component-graphic" x="221.62" y="992.0216" width="40" height="166" viewBox="0 0 40 166" preserveAspectRatio="none" style="display:block;overflow:visible;" overflow="visible"><rect x="8" y="6" width="24" height="160" fill="none" stroke="#000000" stroke-width="2" /></svg><text x="235.62" y="1025.5416" font-size="11" font-family="Helvetica,Arial,sans-serif" fill="#000000" text-anchor="middle">0</text><text x="235.62" y="1081.5416" font-size="11" font-family="Helvetica,Arial,sans-serif" fill="#000000" text-anchor="middle">1</text><text x="235.62" y="1137.5416" font-size="11" font-family="Helvetica,Arial,sans-serif" fill="#000000" text-anchor="middle">2</text><text x="247.62" y="1081.5416" font-size="11" font-family="Helvetica,Arial,sans-serif" fill="#000000" text-anchor="middle">C</text><text x="243.62" y="1178.0416" font-size="11" font-family="Helvetica,Arial,sans-serif" fill="#000000" text-anchor="middle">pad_00</text></g>
<g class="component" data-node-id="pad_01"><svg class="component-graphic" x="221.62" y="1458.0432" width="40" height="166" viewBox="0 0 40 166" preserveAspectRatio="none" style="display:block;overflow:visible;" overflow="visible"><rect x="8" y="6" width="24" height="160" fill="none" stroke="#000000" stroke-width="2" /></svg><text x="235.62" y="1491.5632" font-size="11" font-family="Helvetica,Arial,sans-serif" fill="#000000" text-anchor="middle">0</text><text x="235.62" y="1547.5632" font-size="11" font-family="Helvetica,Arial,sans-serif" fill="#000000" text-anchor="middle">1</text><text x="235.62" y="1603.5632" font-size="11" font-family="Helvetica,Arial,sans-serif" fill="#000000" text-anchor="middle">2</text><text x="247.62" y="1547.5632" font-size="11" font-family="Helvetica,Arial,sans-serif" fill="#000000" text-anchor="middle">C</text><text x="243.62" y="1644.0632" font-size="11" font-family="Helvetica,Arial,sans-serif" fill="#000000" text-anchor="middle">pad_01</text></g>
<g class="component" data-node-id="pad_02"><svg class="component-graphic" x="221.62" y="60.0108" width="40" height="166" viewBox="0 0 40 166" preserveAspectRatio="none" style="display:block;overflow:visible;" overflow="visible"><rect x="8" y="6" width="24" height="160" fill="none" stroke="#000000" stroke-width="2" /></svg><text x="235.62" y="93.5308" font-size="11" font-family="Helvetica,Arial,sans-serif" fill="#000000" text-anchor="middle">0</text><text x="235.62" y="149.5308" font-size="11" font-family="Helvetica,Arial,sans-serif" fill="#000000" text-anchor="middle">1</text><text x="235.62" y="205.5308" font-size="11" font-family="Helvetica,Arial,sans-serif" fill="#000000" text-anchor="middle">2</text><text x="247.62" y="149.5308" font-size="11" font-family="Helvetica,Arial,sans-serif" fill="#000000" text-anchor="middle">C</text><text x="243.62" y="246.0308" font-size="11" font-family="Helvetica,Arial,sans-serif" fill="#000000" text-anchor="middle">pad_02</text></g>
<g class="component" data-node-id="pad_03"><svg class="component-graphic" x="221.62" y="526.0108" width="40" height="166" viewBox="0 0 40 166" preserveAspectRatio="none" style="display:block;overflow:visible;" overflow="visible"><rect x="8" y="6" width="24" height="160" fill="none" stroke="#000000" stroke-width="2" /></svg><text x="235.62" y="559.5308" font-size="11" font-family="Helvetica,Arial,sans-serif" fill="#000000" text-anchor="middle">0</text><text x="235.62" y="615.5308" font-size="11" font-family="Helvetica,Arial,sans-serif" fill="#000000" text-anchor="middle">1</text><text x="235.62" y="671.5308" font-size="11" font-family="Helvetica,Arial,sans-serif" fill="#000000" text-anchor="middle">2</text><text x="247.62" y="615.5308" font-size="11" font-family="Helvetica,Arial,sans-serif" fill="#000000" text-anchor="middle">C</text><text x="243.62" y="712.0308" font-size="11" font-family="Helvetica,Arial,sans-serif" fill="#000000" text-anchor="middle">pad_03</text></g>
<g class="component" data-node-id="pad_04"><svg class="component-graphic" x="221.62" y="1225.0324" width="40" height="166" viewBox="0 0 40 166" preserveAspectRatio="none" style="display:block;overflow:visible;" overflow="visible"><rect x="8" y="6" width="24" height="160" fill="none" stroke="#000000" stroke-width="2" /></svg><text x="235.62" y="1258.5524" font-size="11" font-family="Helvetica,Arial,sans-serif" fill="#000000" text-anchor="middle">0</text><text x="235.62" y="1314.5524" font-size="11" font-family="Helvetica,Arial,sans-serif" fill="#000000" text-anchor="middle">1</text><text x="235.62" y="1370.5524" font-size="11" font-family="Helvetica,Arial,sans-serif" fill="#000000" text-anchor="middle">2</text><text x="247.62" y="1314.5524" font-size="11" font-family="Helvetica,Arial,sans-serif" fill="#000000" text-anchor="middle">C</text><text x="243.62" y="1411.0524" font-size="11" font-family="Helvetica,Arial,sans-serif" fill="#000000" text-anchor="middle">pad_04</text></g>
<g class="component" data-node-id="pad_05"><svg class="component-graphic" x="221.62" y="293.0108" width="40" height="166" viewBox="0 0 40 166" preserveAspectRatio="none" style="display:block;overflow:visible;" overflow="visible"><rect x="8" y="6" width="24" height="160" fill="none" stroke="#000000" stroke-width="2" /></svg><text x="235.62" y="326.5308" font-size="11" font-family="Helvetica,Arial,sans-serif" fill="#000000" text-anchor="middle">0</text><text x="235.62" y="382.5308" font-size="11" font-family="Helvetica,Arial,sans-serif" fill="#000000" text-anchor="middle">1</text><text x="235.62" y="438.5308" font-size="11" font-family="Helvetica,Arial,sans-serif" fill="#000000" text-anchor="middle">2</text><text x="247.62" y="382.5308" font-size="11" font-family="Helvetica,Arial,sans-serif" fill="#000000" text-anchor="middle">C</text><text x="243.62" y="479.0308" font-size="11" font-family="Helvetica,Arial,sans-serif" fill="#000000" text-anchor="middle">pad_05</text></g>
<g class="component" data-node-id="pad_06"><svg class="component-graphic" x="221.62" y="1691.0432" width="40" height="166" viewBox="0 0 40 166" preserveAspectRatio="none" style="display:block;overflow:visible;" overflow="visible"><rect x="8" y="6" width="24" height="160" fill="none" stroke="#000000" stroke-width="2" /></svg><text x="235.62" y="1724.5632" font-size="11" font-family="Helvetica,Arial,sans-serif" fill="#000000" text-anchor="middle">0</text><text x="235.62" y="1780.5632" font-size="11" font-family="Helvetica,Arial,sans-serif" fill="#000000" text-anchor="middle">1</text><text x="235.62" y="1836.5632" font-size="11" font-family="Helvetica,Arial,sans-serif" fill="#000000" text-anchor="middle">2</text><text x="247.62" y="1780.5632" font-size="11" font-family="Helvetica,Arial,sans-serif" fill="#000000" text-anchor="middle">C</text><text x="243.62" y="1877.0632" font-size="11" font-family="Helvetica,Arial,sans-serif" fill="#000000" text-anchor="middle">pad_06</text></g>
<g class="component" data-node-id="pad_07"><svg class="component-graphic" x="221.62" y="759.0216" width="40" height="166" viewBox="0 0 40 166" preserveAspectRatio="none" style="display:block;overflow:visible;" overflow="visible"><rect x="8" y="6" width="24" height="160" fill="none" stroke="#000000" stroke-width="2" /></svg><text x="235.62" y="792.5416" font-size="11" font-family="Helvetica,Arial,sans-serif" fill="#000000" text-anchor="middle">0</text><text x="235.62" y="848.5416" font-size="11" font-family="Helvetica,Arial,sans-serif" fill="#000000" text-anchor="middle">1</text><text x="235.62" y="904.5416" font-size="11" font-family="Helvetica,Arial,sans-serif" fill="#000000" text-anchor="middle">2</text><text x="247.62" y="848.5416" font-size="11" font-family="Helvetica,Arial,sans-serif" fill="#000000" text-anchor="middle">C</text><text x="243.62" y="945.0416" font-size="11" font-family="Helvetica,Arial,sans-serif" fill="#000000" text-anchor="middle">pad_07</text></g>
<g class="component" data-node-id="public_from"><svg class="component-graphic" x="89.83" y="1150.0149" width="40" height="19" viewBox="0 0 40 19" preserveAspectRatio="none" style="display:block;overflow:visible;" overflow="visible"><path d="M 0 14 Q 5 9 10 14 T 20 14 T 30 14 T 40 14" fill="none" stroke="#000000" stroke-width="2" stroke-linecap="round" stroke-linejoin="round" /></svg><text x="111.83" y="1184.0349" font-size="11" font-family="Helvetica,Arial,sans-serif" fill="#000000" text-anchor="middle">public_from</text></g>
<g class="component" data-node-id="public_gate"><svg class="component-graphic" x="89.83" y="871.0122" width="40" height="54" viewBox="0 0 40 54" preserveAspectRatio="none" style="display:block;overflow:visible;" overflow="visible"><path d="M 11 18 L 19 18 A 12 12 0 1 1 19 42 L 11 42 Z" fill="none" stroke="#000000" stroke-width="2" stroke-linejoin="miter" /><path d="M 31 30 L 34 30" fill="none" stroke="#000000" stroke-width="2" /><circle cx="37" cy="30" r="3" fill="#ffffff" stroke="#000000" stroke-width="2" /></svg><text x="111.83" y="931.0322" font-size="11" font-family="Helvetica,Arial,sans-serif" fill="#000000" text-anchor="middle">public_gate</text></g>
<g class="component" data-node-id="public_source"><svg class="component-graphic" x="89.83" y="526" width="40" height="54" viewBox="0 0 40 54" preserveAspectRatio="none" style="display:block;overflow:visible;" overflow="visible"><circle cx="20.0" cy="30" r="14" fill="none" stroke="#000000" stroke-width="2" /><path d="M 12.0 30.0 L 13.3 33.5 L 14.7 35.0 L 16.0 33.5 L 17.3 30.0 L 18.7 26.5 L 20.0 25.0 L 21.3 26.5 L 22.7 30.0 L 24.0 33.5 L 25.3 35.0 L 26.7 33.5 L 28.0 30.0" fill="none" stroke="#000000" stroke-width="1.5" stroke-linecap="round" stroke-linejoin="round" /></svg><text x="111.83" y="586.02" font-size="11" font-family="Helvetica,Arial,sans-serif" fill="#000000" text-anchor="middle">public_source</text></g>
<g class="component" data-node-id="sparse_00"><svg class="component-graphic" x="89.83" y="1048.0122" width="40" height="54" viewBox="0 0 40 54" preserveAspectRatio="none" style="display:block;overflow:visible;" overflow="visible"><circle cx="20.0" cy="30" r="14" fill="none" stroke="#000000" stroke-width="2" /><path d="M 12.0 30.0 L 13.3 33.5 L 14.7 35.0 L 16.0 33.5 L 17.3 30.0 L 18.7 26.5 L 20.0 25.0 L 21.3 26.5 L 22.7 30.0 L 24.0 33.5 L 25.3 35.0 L 26.7 33.5 L 28.0 30.0" fill="none" stroke="#000000" stroke-width="1.5" stroke-linecap="round" stroke-linejoin="round" /></svg><text x="111.83" y="1108.0322" font-size="11" font-family="Helvetica,Arial,sans-serif" fill="#000000" text-anchor="middle">sparse_00</text></g>
<g class="component" data-node-id="sparse_01"><svg class="component-graphic" x="89.83" y="309.0013" width="40" height="19" viewBox="0 0 40 19" preserveAspectRatio="none" style="display:block;overflow:visible;" overflow="visible"><path d="M 0 14 Q 5 9 10 14 T 20 14 T 30 14 T 40 14" fill="none" stroke="#000000" stroke-width="2" stroke-linecap="round" stroke-linejoin="round" /></svg><text x="111.83" y="343.0213" font-size="11" font-family="Helvetica,Arial,sans-serif" fill="#000000" text-anchor="middle">sparse_01</text></g>
<g class="component" data-node-id="sparse_02"><svg class="component-graphic" x="89.83" y="1458.0324" width="40" height="54" viewBox="0 0 40 54" preserveAspectRatio="none" style="display:block;overflow:visible;" overflow="visible"><path d="M 11 18 L 19 18 A 12 12 0 1 1 19 42 L 11 42 Z" fill="none" stroke="#000000" stroke-width="2" stroke-linejoin="miter" /><path d="M 31 30 L 34 30" fill="none" stroke="#000000" stroke-width="2" /><circle cx="37" cy="30" r="3" fill="#ffffff" stroke="#000000" stroke-width="2" /></svg><text x="111.83" y="1518.0524" font-size="11" font-family="Helvetica,Arial,sans-serif" fill="#000000" text-anchor="middle">sparse_02</text></g>
<g class="component" data-node-id="sparse_03"><svg class="component-graphic" x="89.83" y="1803.0352" width="40" height="54" viewBox="0 0 40 54" preserveAspectRatio="none" style="display:block;overflow:visible;" overflow="visible"><circle cx="20.0" cy="30" r="14" fill="none" stroke="#000000" stroke-width="2" /><path d="M 12.0 30.0 L 13.3 33.5 L 14.7 35.0 L 16.0 33.5 L 17.3 30.0 L 18.7 26.5 L 20.0 25.0 L 21.3 26.5 L 22.7 30.0 L 24.0 33.5 L 25.3 35.0 L 26.7 33.5 L 28.0 30.0" fill="none" stroke="#000000" stroke-width="1.5" stroke-linecap="round" stroke-linejoin="round" /></svg><text x="111.83" y="1863.0552" font-size="11" font-family="Helvetica,Arial,sans-serif" fill="#000000" text-anchor="middle">sparse_03</text></g>
<g class="component" data-node-id="sparse_04"><svg class="component-graphic" x="89.83" y="188.0041" width="40" height="19" viewBox="0 0 40 19" preserveAspectRatio="none" style="display:block;overflow:visible;" overflow="visible"><path d="M 0 14 Q 5 9 10 14 T 20 14 T 30 14 T 40 14" fill="none" stroke="#000000" stroke-width="2" stroke-linecap="round" stroke-linejoin="round" /></svg><text x="111.83" y="222.0241" font-size="11" font-family="Helvetica,Arial,sans-serif" fill="#000000" text-anchor="middle">sparse_04</text></g>
<g class="component" data-node-id="sparse_05"><svg class="component-graphic" x="89.83" y="815.0122" width="40" height="54" viewBox="0 0 40 54" preserveAspectRatio="none" style="display:block;overflow:visible;" overflow="visible"><path d="M 11 18 L 19 18 A 12 12 0 1 1 19 42 L 11 42 Z" fill="none" stroke="#000000" stroke-width="2" stroke-linejoin="miter" /><path d="M 31 30 L 34 30" fill="none" stroke="#000000" stroke-width="2" /><circle cx="37" cy="30" r="3" fill="#ffffff" stroke="#000000" stroke-width="2" /></svg><text x="111.83" y="875.0322" font-size="11" font-family="Helvetica,Arial,sans-serif" fill="#000000" text-anchor="middle">sparse_05</text></g>
<g class="component" data-node-id="sparse_06"><svg class="component-graphic" x="89.83" y="582.0014" width="40" height="54" viewBox="0 0 40 54" preserveAspectRatio="none" style="display:block;overflow:visible;" overflow="visible"><circle cx="20.0" cy="30" r="14" fill="none" stroke="#000000" stroke-width="2" /><path d="M 12.0 30.0 L 13.3 33.5 L 14.7 35.0 L 16.0 33.5 L 17.3 30.0 L 18.7 26.5 L 20.0 25.0 L 21.3 26.5 L 22.7 30.0 L 24.0 33.5 L 25.3 35.0 L 26.7 33.5 L 28.0 30.0" fill="none" stroke="#000000" stroke-width="1.5" stroke-linecap="round" stroke-linejoin="round" /></svg><text x="111.83" y="642.0214" font-size="11" font-family="Helvetica,Arial,sans-serif" fill="#000000" text-anchor="middle">sparse_06</text></g>
<g class="component" data-node-id="sparse_07"><svg class="component-graphic" x="89.83" y="1120.0149" width="40" height="19" viewBox="0 0 40 19" preserveAspectRatio="none" style="display:block;overflow:visible;" overflow="visible"><path d="M 0 14 Q 5 9 10 14 T 20 14 T 30 14 T 40 14" fill="none" stroke="#000000" stroke-width="2" stroke-linecap="round" stroke-linejoin="round" /></svg><text x="111.83" y="1154.0349" font-size="11" font-family="Helvetica,Arial,sans-serif" fill="#000000" text-anchor="middle">sparse_07</text></g>
<g class="component" data-node-id="sparse_08"><svg class="component-graphic" x="89.83" y="1225.0216" width="40" height="54" viewBox="0 0 40 54" preserveAspectRatio="none" style="display:block;overflow:visible;" overflow="visible"><path d="M 11 18 L 19 18 A 12 12 0 1 1 19 42 L 11 42 Z" fill="none" stroke="#000000" stroke-width="2" stroke-linejoin="miter" /><path d="M 31 30 L 34 30" fill="none" stroke="#000000" stroke-width="2" /><circle cx="37" cy="30" r="3" fill="#ffffff" stroke="#000000" stroke-width="2" /></svg><text x="111.83" y="1285.0416" font-size="11" font-family="Helvetica,Arial,sans-serif" fill="#000000" text-anchor="middle">sparse_08</text></g>
<g class="component" data-node-id="sparse_09"><svg class="component-graphic" x="89.83" y="1514.0338" width="40" height="54" viewBox="0 0 40 54" preserveAspectRatio="none" style="display:block;overflow:visible;" overflow="visible"><circle cx="20.0" cy="30" r="14" fill="none" stroke="#000000" stroke-width="2" /><path d="M 12.0 30.0 L 13.3 33.5 L 14.7 35.0 L 16.0 33.5 L 17.3 30.0 L 18.7 26.5 L 20.0 25.0 L 21.3 26.5 L 22.7 30.0 L 24.0 33.5 L 25.3 35.0 L 26.7 33.5 L 28.0 30.0" fill="none" stroke="#000000" stroke-width="1.5" stroke-linecap="round" stroke-linejoin="round" /></svg><text x="111.83" y="1574.0538" font-size="11" font-family="Helvetica,Arial,sans-serif" fill="#000000" text-anchor="middle">sparse_09</text></g>
<g class="component" data-node-id="sparse_10"><svg class="component-graphic" x="89.83" y="421.0041" width="40" height="19" viewBox="0 0 40 19" preserveAspectRatio="none" style="display:block;overflow:visible;" overflow="visible"><path d="M 0 14 Q 5 9 10 14 T 20 14 T 30 14 T 40 14" fill="none" stroke="#000000" stroke-width="2" stroke-linecap="round" stroke-linejoin="round" /></svg><text x="111.83" y="455.0241" font-size="11" font-family="Helvetica,Arial,sans-serif" fill="#000000" text-anchor="middle">sparse_10</text></g>
<g class="component" data-node-id="sparse_11"><svg class="component-graphic" x="89.83" y="60" width="40" height="54" viewBox="0 0 40 54" preserveAspectRatio="none" style="display:block;overflow:visible;" overflow="visible"><path d="M 11 18 L 19 18 A 12 12 0 1 1 19 42 L 11 42 Z" fill="none" stroke="#000000" stroke-width="2" stroke-linejoin="miter" /><path d="M 31 30 L 34 30" fill="none" stroke="#000000" stroke-width="2" /><circle cx="37" cy="30" r="3" fill="#ffffff" stroke="#000000" stroke-width="2" /></svg><text x="111.83" y="120.02" font-size="11" font-family="Helvetica,Arial,sans-serif" fill="#000000" text-anchor="middle">sparse_11</text></g>
<g class="component" data-node-id="sparse_12"><svg class="component-graphic" x="89.83" y="1747.0338" width="40" height="54" viewBox="0 0 40 54" preserveAspectRatio="none" style="display:block;overflow:visible;" overflow="visible"><circle cx="20.0" cy="30" r="14" fill="none" stroke="#000000" stroke-width="2" /><path d="M 12.0 30.0 L 13.3 33.5 L 14.7 35.0 L 16.0 33.5 L 17.3 30.0 L 18.7 26.5 L 20.0 25.0 L 21.3 26.5 L 22.7 30.0 L 24.0 33.5 L 25.3 35.0 L 26.7 33.5 L 28.0 30.0" fill="none" stroke="#000000" stroke-width="1.5" stroke-linecap="round" stroke-linejoin="round" /></svg><text x="111.83" y="1807.0538" font-size="11" font-family="Helvetica,Arial,sans-serif" fill="#000000" text-anchor="middle">sparse_12</text></g>
<g class="component" data-node-id="sparse_13"><svg class="component-graphic" x="89.83" y="654.0041" width="40" height="19" viewBox="0 0 40 19" preserveAspectRatio="none" style="display:block;overflow:visible;" overflow="visible"><path d="M 0 14 Q 5 9 10 14 T 20 14 T 30 14 T 40 14" fill="none" stroke="#000000" stroke-width="2" stroke-linecap="round" stroke-linejoin="round" /></svg><text x="111.83" y="688.0241" font-size="11" font-family="Helvetica,Arial,sans-serif" fill="#000000" text-anchor="middle">sparse_13</text></g>
<g class="component" data-node-id="sparse_14"><svg class="component-graphic" x="89.83" y="759.0108" width="40" height="54" viewBox="0 0 40 54" preserveAspectRatio="none" style="display:block;overflow:visible;" overflow="visible"><path d="M 11 18 L 19 18 A 12 12 0 1 1 19 42 L 11 42 Z" fill="none" stroke="#000000" stroke-width="2" stroke-linejoin="miter" /><path d="M 31 30 L 34 30" fill="none" stroke="#000000" stroke-width="2" /><circle cx="37" cy="30" r="3" fill="#ffffff" stroke="#000000" stroke-width="2" /></svg><text x="111.83" y="819.0308" font-size="11" font-family="Helvetica,Arial,sans-serif" fill="#000000" text-anchor="middle">sparse_14</text></g>
<g class="component" data-node-id="sparse_15"><svg class="component-graphic" x="89.83" y="1281.023" width="40" height="54" viewBox="0 0 40 54" preserveAspectRatio="none" style="display:block;overflow:visible;" overflow="visible"><circle cx="20.0" cy="30" r="14" fill="none" stroke="#000000" stroke-width="2" /><path d="M 12.0 30.0 L 13.3 33.5 L 14.7 35.0 L 16.0 33.5 L 17.3 30.0 L 18.7 26.5 L 20.0 25.0 L 21.3 26.5 L 22.7 30.0 L 24.0 33.5 L 25.3 35.0 L 26.7 33.5 L 28.0 30.0" fill="none" stroke="#000000" stroke-width="1.5" stroke-linecap="round" stroke-linejoin="round" /></svg><text x="111.83" y="1341.043" font-size="11" font-family="Helvetica,Arial,sans-serif" fill="#000000" text-anchor="middle">sparse_15</text></g>
<g class="frequency-table">
<g class="frequency-heading" data-frequency-field="func_freq" data-heading-render="outline" aria-label="工作频率" transform="translate(537.2 146.0039) scale(0.012 -0.012)" fill="#20252b">
<title>工作频率</title>
<path transform="translate(0 0)" d="M52 72V-3H951V72H539V650H900V727H104V650H456V72Z"/>
<path transform="translate(1000 0)" d="M526 828C476 681 395 536 305 442C322 430 351 404 363 391C414 447 463 520 506 601H575V-79H651V164H952V235H651V387H939V456H651V601H962V673H542C563 717 582 763 598 809ZM285 836C229 684 135 534 36 437C50 420 72 379 80 362C114 397 147 437 179 481V-78H254V599C293 667 329 741 357 814Z"/>
<path transform="translate(2000 0)" d="M701 501C699 151 688 35 446-30C459-43 477-67 483-83C743-9 762 129 764 501ZM728 84C795 34 881-38 923-82L968-34C925 9 837 78 770 126ZM428 386C376 178 261 42 49-25C64-40 81-65 88-83C315-3 438 144 493 371ZM133 397C113 323 80 248 37 197C54 189 81 172 93 162C135 217 174 301 196 383ZM544 609V137H608V550H854V139H922V609H742L782 714H950V781H518V714H709C699 680 686 640 672 609ZM114 753V529H39V461H248V158H316V461H502V529H334V652H479V716H334V841H266V529H176V753Z"/>
<path transform="translate(3000 0)" d="M829 643C794 603 732 548 687 515L742 478C788 510 846 558 892 605ZM56 337 94 277C160 309 242 353 319 394L304 451C213 407 118 363 56 337ZM85 599C139 565 205 515 236 481L290 527C256 561 190 609 136 640ZM677 408C746 366 832 306 874 266L930 311C886 351 797 410 730 448ZM51 202V132H460V-80H540V132H950V202H540V284H460V202ZM435 828C450 805 468 776 481 750H71V681H438C408 633 374 592 361 579C346 561 331 550 317 547C324 530 334 498 338 483C353 489 375 494 490 503C442 454 399 415 379 399C345 371 319 352 297 349C305 330 315 297 318 284C339 293 374 298 636 324C648 304 658 286 664 270L724 297C703 343 652 415 607 466L551 443C568 424 585 401 600 379L423 364C511 434 599 522 679 615L618 650C597 622 573 594 550 567L421 560C454 595 487 637 516 681H941V750H569C555 779 531 818 508 847Z"/>
</g>
<text class="frequency-heading" data-frequency-field="scan_freq" x="640.2" y="146.0039" text-anchor="middle" font-family="Noto Sans CJK SC,Microsoft YaHei,WenQuanYi Micro Hei,sans-serif" font-size="12" fill="#20252b">SCAN</text>
<text class="frequency-heading" data-frequency-field="bist_freq" x="718.2" y="146.0039" text-anchor="middle" font-family="Noto Sans CJK SC,Microsoft YaHei,WenQuanYi Micro Hei,sans-serif" font-size="12" fill="#20252b">BIST</text>
</g>
</svg>
